<svg xmlns="http://www.w3.org/2000/svg" width="32.206" height="32.206" viewBox="0 0 32.206 32.206"><defs><style>.a{fill:#00ff90;}.b{fill:none;stroke:#00ff90;stroke-linecap:round;stroke-linejoin:round;stroke-width:2px;fill-rule:evenodd;}</style></defs><path class="a" d="M93.631,64H66.752A2.627,2.627,0,0,0,64,66.508V93.446a2.834,2.834,0,0,0,2.752,2.76H93.622a2.69,2.69,0,0,0,2.584-2.76V66.508A2.469,2.469,0,0,0,93.631,64Zm-.268,29.53H66.945a.256.256,0,0,1-.26-.26V66.852a.174.174,0,0,1,.168-.168h26.51a.18.18,0,0,1,.168.168v26.51A.18.18,0,0,1,93.362,93.53Z" transform="translate(-64 -64)"/><g transform="translate(8.734 7.975)"><g transform="translate(0 0)"><g transform="translate(0 0)"><path class="b" d="M5.122,14.165c-3.659,1.1-3.659-1.829-5.122-2.2M10.245,16.36V13.528a2.466,2.466,0,0,0-.688-1.91c2.3-.256,4.713-1.127,4.713-5.122a3.98,3.98,0,0,0-1.1-2.744A3.71,3.71,0,0,0,13.106.993s-.863-.256-2.861,1.083a9.791,9.791,0,0,0-5.122,0C3.125.737,2.261.993,2.261.993A3.71,3.71,0,0,0,2.2,3.752,3.981,3.981,0,0,0,1.1,6.518c0,3.966,2.415,4.837,4.713,5.122a2.466,2.466,0,0,0-.688,1.888V16.36" transform="translate(0 -0.973)"/></g></g></g></svg>