<?xml version="1.0" encoding="utf-8"?>
<!-- Generator: Adobe Illustrator 24.1.1, SVG Export Plug-In . SVG Version: 6.00 Build 0)  -->
<svg version="1.1" id="Camada_1" xmlns="http://www.w3.org/2000/svg" xmlns:xlink="http://www.w3.org/1999/xlink" x="0px" y="0px"
	 viewBox="0 0 1048.6 1075.4" style="enable-background:new 0 0 1048.6 1075.4;" xml:space="preserve">
<style type="text/css">
	.st0{fill:url(#SVGID_1_);}
	.st1{opacity:0.11;fill:#8B8B8B;enable-background:new    ;}
	.st2{fill:#37474F;}
	.st3{fill:#455A64;}
	.st4{fill:#27DEBF;}
	.st5{opacity:0.6;enable-background:new    ;}
	.st6{opacity:0.5;enable-background:new    ;}
	.st7{opacity:0.4;enable-background:new    ;}
	.st8{opacity:0.15;enable-background:new    ;}
	.st9{fill:#263238;}
	.st10{fill:#E6E6E6;}
	.st11{fill:#E0E0E0;}
	.st12{fill:#F5F5F5;}
	.st13{fill:#EBEBEB;}
	.st14{fill:#FFFFFF;}
	.st15{opacity:0.5;fill:#FFFFFF;enable-background:new    ;}
	.st16{opacity:0.9;fill:#263238;enable-background:new    ;}
	.st17{opacity:0.6;fill:#FFFFFF;enable-background:new    ;}
	.st18{opacity:0.6;}
	.st19{opacity:0.8;fill:#FFFFFF;enable-background:new    ;}
	.st20{opacity:0.8;fill:#455A64;enable-background:new    ;}
	.st21{opacity:0.9;fill:#37474F;enable-background:new    ;}
	.st22{opacity:0.6;fill:#27DEBF;enable-background:new    ;}
	.st23{opacity:0.5;}
	.st24{opacity:0.7;}
	.st25{opacity:0.3;}
	.st26{opacity:0.25;}
	.st27{opacity:0.1;enable-background:new    ;}
	.st28{fill:#FFA8A7;}
	.st29{fill:#FAFAFA;}
	.st30{opacity:0.4;}
	.st31{fill:#F28F8F;}
	.st32{fill:none;stroke:#263238;stroke-width:1.207;stroke-miterlimit:10;}
	.st33{fill:none;stroke:#263238;stroke-width:1.027;stroke-miterlimit:10;}
	.st34{opacity:0.75;fill:#FFFFFF;enable-background:new    ;}
	.st35{opacity:0.1;fill:#27DEBF;enable-background:new    ;}
	.st36{opacity:0.3;enable-background:new    ;}
</style>
<g transform="translate(-994.12 44.6)">
	<g transform="matrix(1, 0, 0, 1, 994.12, -44.6)">
		
			<linearGradient id="SVGID_1_" gradientUnits="userSpaceOnUse" x1="462.4359" y1="549.2494" x2="462.4359" y2="547.8297" gradientTransform="matrix(358.929 492.7669 394.4815 -287.3383 -381748.9063 -69727.0078)">
			<stop  offset="0" style="stop-color:#27DEBF"/>
			<stop  offset="1" style="stop-color:#00FF90"/>
		</linearGradient>
		<path class="st0" d="M211.7,554.1c-22.4-39.8-20.3-92,4-130.6c50.4-80.4,175.7-89.4,221.2-172.7c20.6-37.8,20.1-83.8,37.6-123
			C507.1,54.4,576,22,673.2,56.3c93.1,32.8,98,119,85.8,165.8c-25.4,97.2,21.6,126.9,101.8,183.2
			c156.1,109.6,164.5,227.6,144.9,306.1c-11,43.8-31.8,85.6-64,117.3c-91.3,90-177.3,36.4-193,22.5c-37.9-33.6-70.8-72.4-97.7-115.3
			c-19.4-30.8-36.5-64.7-65.7-86.4c-58.7-43.8-103.7-51.1-176.5-42.7C296.2,619.7,241.6,607.2,211.7,554.1z"/>
	</g>
	<g transform="translate(1021.985 236.945)">
		<g transform="translate(108.369 310.123)">
			<path class="st1" d="M643.1,220.2L400.5,360.3c-2,1-4.5,1-6.5,0l-349.8-202c-1-0.4-1.6-1.5-1.2-2.5c0.2-0.6,0.7-1,1.2-1.2
				L286.8,14.4c2-1,4.5-1,6.5,0l349.8,202C644.9,217.4,644.9,219.1,643.1,220.2z"/>
			<ellipse class="st1" cx="79.3" cy="354.6" rx="145.7" ry="84.1"/>
			<ellipse class="st1" cx="256.8" cy="257" rx="114.7" ry="66.2"/>
		</g>
		<g transform="translate(203.502 36.975)">
			<g transform="translate(0 123.81)">
				<g transform="translate(224.844 216.069)">
					<path class="st2" d="M85.8,43.2v215.4c-0.1,1.5-0.9,2.9-2.2,3.8L79,265c-1.4,0.7-3,0.7-4.3,0l-4.6-2.7
						c-1.3-0.8-2.1-2.2-2.2-3.8V43.2c0-1.4,1-1.9,2.2-1.3l4.6,2.7c1.4,0.7,3,0.7,4.3,0l4.6-2.7C84.8,41.3,85.8,41.8,85.8,43.2z"/>
					<path class="st3" d="M74.7,265l-4.6-2.7c-1.3-0.8-2.1-2.2-2.2-3.8V43.2c0-1.4,1-1.9,2.2-1.3l4.6,2.7c1.3,0.8,2.1,2.2,2.2,3.8
						v215.4C76.8,265.1,75.9,265.7,74.7,265z"/>
				</g>
				<g transform="translate(363.635 135.89)">
					<path class="st2" d="M144.1,9.6v215.4c-0.1,1.5-0.9,2.9-2.2,3.8l-4.6,2.7c-1.4,0.7-3,0.7-4.3,0l-4.6-2.7
						c-1.3-0.8-2.1-2.2-2.2-3.8V9.6c0-1.4,1-1.9,2.2-1.3l4.6,2.7c1.4,0.7,3,0.7,4.3,0l4.6-2.7C143.1,7.6,144.1,8.2,144.1,9.6z"/>
					<path class="st3" d="M132.9,231.3l-4.6-2.7c-1.3-0.8-2.1-2.2-2.2-3.8V9.6c0-1.4,1-1.9,2.2-1.3l4.6,2.7c1.3,0.8,2.1,2.2,2.2,3.8
						v215.4C135.1,231.5,134.1,232,132.9,231.3z"/>
				</g>
				<g transform="translate(37.927 108.207)">
					<path class="st2" d="M7.3-2.1v215.3c-0.1,1.5-0.9,2.9-2.2,3.8l-4.6,2.7c-1.4,0.7-3,0.7-4.3,0l-4.6-2.7
						c-1.3-0.8-2.1-2.2-2.2-3.8V-2.1c0-1.4,1-1.9,2.2-1.3l4.6,2.7c1.4,0.7,3,0.7,4.3,0l4.6-2.7C6.4-4,7.3-3.5,7.3-2.1z"/>
					<path class="st3" d="M-3.8,219.7l-4.6-2.7c-1.3-0.8-2.1-2.2-2.2-3.8V-2.1c0-1.4,1-1.9,2.2-1.3l4.6,2.7c1.3,0.8,2.1,2.2,2.2,3.8
						v215.4C-1.6,219.8-2.6,220.4-3.8,219.7z"/>
				</g>
				<path class="st4" d="M550.6,160.8v-1.6c-0.2-2.8-1.6-5.3-4-6.9L199.1-48.1c-2.5-1.3-5.4-1.3-7.9,0L-22.6,75.4
					c-2.3,1.5-3.8,4.1-4,6.9v1.6c0.2,2.8,1.6,5.3,4,6.9l347.5,200.4c2.5,1.3,5.4,1.3,7.9,0l213.8-123.5
					C548.9,166.1,550.4,163.5,550.6,160.8z"/>
				<path class="st5" d="M550.6,160.8v-1.6c-0.2-2.8-1.6-5.3-4-6.9L199.1-48.1c-2.5-1.3-5.4-1.3-7.9,0L-22.6,75.4
					c-2.3,1.5-3.8,4.1-4,6.9v1.6c0.2,2.8,1.6,5.3,4,6.9l347.5,200.4c2.5,1.3,5.4,1.3,7.9,0l213.8-123.5
					C548.9,166.1,550.4,163.5,550.6,160.8z"/>
				<g transform="translate(250.326 142.203)">
					<path class="st4" d="M78.6,139.1v10.7c1.4,0,2.7-0.3,4-0.9L296.3,25.4c2.3-1.5,3.8-4.1,4-6.9V17c-0.1-2.5-1.3-4.8-3.2-6.3
						c1.4,1.2,1.2,2.9-0.7,4L82.5,138.2C81.3,138.8,79.9,139.1,78.6,139.1z"/>
					<path class="st6" d="M78.6,139.1v10.7c1.4,0,2.7-0.3,4-0.9L296.3,25.4c2.3-1.5,3.8-4.1,4-6.9V17c-0.1-2.5-1.3-4.8-3.2-6.3
						c1.4,1.2,1.2,2.9-0.7,4L82.5,138.2C81.3,138.8,79.9,139.1,78.6,139.1z"/>
				</g>
				<g transform="translate(1.631)">
					<path class="st4" d="M545,156.9L331.2,280.4c-2.5,1.3-5.4,1.3-7.9,0L-24.2,79.9c-2.2-1.3-2.2-3.3,0-4.6L189.6-48.1
						c2.5-1.3,5.4-1.3,7.9,0L545,152.3C547.2,153.6,547.2,155.6,545,156.9z"/>
					<path class="st7" d="M545,156.9L331.2,280.4c-2.5,1.3-5.4,1.3-7.9,0L-24.2,79.9c-2.2-1.3-2.2-3.3,0-4.6L189.6-48.1
						c2.5-1.3,5.4-1.3,7.9,0L545,152.3C547.2,153.6,547.2,155.6,545,156.9z"/>
				</g>
			</g>
			<g transform="translate(85.937 199.909)">
				<path class="st8" d="M216.7,78.1L166,107.4c-1.8,0.9-3.9,0.9-5.7,0L10.7,21.2c-0.9-0.3-1.4-1.3-1.1-2.2c0.2-0.5,0.6-0.9,1.1-1.1
					l50.6-29.3c1.8-0.9,3.9-0.9,5.7,0l149.6,86.3c0.9,0.3,1.4,1.3,1.1,2.2C217.6,77.5,217.2,77.9,216.7,78.1z"/>
				<g transform="translate(2.989)">
					<path class="st9" d="M10.8,12.7c0.1-0.7,0.5-1.3,1.2-1.6l47.6-27.5c1.8-0.9,3.9-0.9,5.7,0l145.2,84c0.7,0.3,1.1,0.9,1.2,1.6v5
						c-0.1,0.7-0.5,1.3-1.2,1.6l-47.6,27.5c-1.8,0.9-3.9,0.9-5.7,0L12,19.4c-0.7-0.3-1.1-0.9-1.2-1.6C10.8,17.2,10.8,13.3,10.8,12.7
						z"/>
					<path class="st2" d="M162.9,98.2l47.6-27.3c0.9-0.3,1.4-1.3,1.1-2.2c-0.2-0.5-0.6-0.9-1.1-1.1l-145.2-84
						c-1.8-0.9-3.9-0.9-5.7,0L12,11c-0.9,0.3-1.4,1.3-1.1,2.2c0.2,0.5,0.6,0.9,1.1,1.1l145.2,83.8C159,99.1,161.1,99.1,162.9,98.2z"
						/>
					<path class="st9" d="M160.2,98.8v5.1c0.9,0,1.8-0.2,2.7-0.7l47.5-27.5c0.7-0.3,1.1-0.9,1.2-1.6v-5c-0.1,0.7-0.5,1.3-1.2,1.6
						l-47.5,27.4C162.1,98.6,161.1,98.8,160.2,98.8z"/>
					<path class="st4" d="M19.6,13.1C19.6,13,19.6,13,19.6,13.1l4.7-2.8l6.4,3.7L26,16.8L19.6,13.1L19.6,13.1z M27,8.8
						C27,8.8,27,8.7,27,8.8L31.7,6l5,2.9L32,11.7L27,8.8L27,8.8z M28.6,18.2C28.6,18.2,28.6,18.2,28.6,18.2l4.7-2.8l5,2.9l-4.7,2.8
						L28.6,18.2L28.6,18.2z M34.4,4.5C34.4,4.5,34.4,4.5,34.4,4.5l4.7-2.8l8.1,4.7l-4.7,2.8L34.4,4.5L34.4,4.5z M34.6,13.2
						C34.6,13.1,34.6,13.1,34.6,13.2l4.7-2.8l4,2.3l-4.7,2.8L34.6,13.2L34.6,13.2z M36.1,22.6C36.1,22.5,36.1,22.5,36.1,22.6
						l4.7-2.8l5,2.9l-4.7,2.8L36.1,22.6L36.1,22.6z M41.1,16.9C41.1,16.9,41.1,16.9,41.1,16.9l4.7-2.8l4,2.3l-4.7,2.8L41.1,16.9
						L41.1,16.9z M41.8,0.3C41.8,0.3,41.8,0.2,41.8,0.3l4.7-2.8l6.4,3.7L48.1,4L41.8,0.3L41.8,0.3z M43.7,26.9
						C43.7,26.9,43.7,26.9,43.7,26.9l4.7-2.8l36.3,20.9l-4.7,2.8L43.7,26.9L43.7,26.9z M45,10.7C45,10.7,45,10.6,45,10.7l4.7-2.8
						l4,2.3L49,13L45,10.7L45,10.7z M47.6,20.7C47.6,20.7,47.6,20.6,47.6,20.7l4.7-2.8l4,2.3L51.6,23L47.6,20.7L47.6,20.7z M49.1-4
						C49.1-4,49.1-4,49.1-4l4.7-2.8l4,2.3l-4.7,2.8L49.1-4L49.1-4z M50.7,5.4C50.7,5.4,50.7,5.4,50.7,5.4l4.7-2.8l4,2.3l-4.7,2.8
						L50.7,5.4L50.7,5.4z M51.5,14.4C51.5,14.4,51.6,14.4,51.5,14.4l4.7-2.8l4,2.3l-4.7,2.8L51.5,14.4L51.5,14.4z M54.1,24.4
						C54.1,24.4,54.1,24.4,54.1,24.4l4.7-2.8l4,2.3l-4.7,2.8L54.1,24.4L54.1,24.4z M55.6-0.2C55.6-0.2,55.7-0.3,55.6-0.2L60.4-3
						l4,2.3l-4.7,2.8L55.6-0.2L55.6-0.2z M57.2,9.2C57.2,9.2,57.2,9.2,57.2,9.2l4.7-2.8l4,2.3l-4.7,2.8L57.2,9.2L57.2,9.2z
						 M58.1,18.2C58.1,18.2,58.1,18.2,58.1,18.2l4.7-2.8l4,2.3l-4.7,2.8L58.1,18.2L58.1,18.2z M58.1-9.1C58.1-9.2,58.1-9.2,58.1-9.1
						l4.7-2.8l5,2.9l-4.7,2.8L58.1-9.1L58.1-9.1z M60.6,28.2C60.6,28.2,60.7,28.2,60.6,28.2l4.7-2.8l4,2.3l-4.7,2.8L60.6,28.2
						L60.6,28.2z M62.2,3.6C62.2,3.5,62.2,3.5,62.2,3.6l4.7-2.8l4,2.3l-4.7,2.8L62.2,3.6L62.2,3.6z M63.7,13
						C63.7,12.9,63.7,12.9,63.7,13l4.7-2.8l4,2.3l-4.7,2.8L63.7,13L63.7,13z M64.6,22C64.6,22,64.6,21.9,64.6,22l4.7-2.8l4,2.3
						l-4.7,2.8L64.6,22L64.6,22z M67.2,32C67.2,32,67.2,31.9,67.2,32l4.7-2.8l4,2.3l-4.7,2.8L67.2,32L67.2,32z M68.5-3.1
						C68.5-3.2,68.5-3.2,68.5-3.1l4.7-2.8l4,2.3l-4.7,2.8L68.5-3.1L68.5-3.1z M68.7,7.3C68.7,7.3,68.7,7.3,68.7,7.3l4.7-2.8l4,2.3
						l-4.7,2.8L68.7,7.3L68.7,7.3z M70.2,16.7C70.2,16.7,70.3,16.7,70.2,16.7l4.7-2.8l4,2.3l-4.7,2.8L70.2,16.7L70.2,16.7z
						 M71.1,25.7C71.1,25.7,71.1,25.7,71.1,25.7l4.7-2.8l4,2.3l-4.7,2.8L71.1,25.7L71.1,25.7z M73.7,35.7
						C73.7,35.7,73.7,35.7,73.7,35.7l4.7-2.8l4,2.3l-4.7,2.8L73.7,35.7L73.7,35.7z M75,0.6C75,0.6,75,0.6,75,0.6l4.7-2.8l4,2.3L79,3
						L75,0.6L75,0.6z M75.2,11.1C75.2,11.1,75.2,11,75.2,11.1L80,8.3l4,2.3l-4.7,2.8L75.2,11.1L75.2,11.1z M76.8,20.5
						C76.8,20.5,76.8,20.4,76.8,20.5l4.7-2.8l4,2.3l-4.7,2.8L76.8,20.5L76.8,20.5z M77.6,29.5C77.6,29.5,77.6,29.5,77.6,29.5
						l4.7-2.8l4,2.3l-4.7,2.8L77.6,29.5L77.6,29.5z M80.2,39.5C80.2,39.5,80.2,39.5,80.2,39.5l4.7-2.8l4,2.3l-4.7,2.8L80.2,39.5
						L80.2,39.5z M81.5,4.4C81.5,4.4,81.5,4.3,81.5,4.4l4.7-2.8l4,2.3l-4.7,2.8L81.5,4.4L81.5,4.4z M81.7,14.9
						C81.7,14.8,81.8,14.8,81.7,14.9l4.7-2.8l4,2.3l-4.7,2.8L81.7,14.9L81.7,14.9z M82.5,49.3C82.5,49.3,82.5,49.3,82.5,49.3
						l4.7-2.8l5,2.9l-4.7,2.8L82.5,49.3L82.5,49.3z M83.3,24.3C83.3,24.2,83.3,24.2,83.3,24.3l4.7-2.8l4,2.3l-4.7,2.8L83.3,24.3
						L83.3,24.3z M84.2,33.3C84.2,33.2,84.2,33.2,84.2,33.3l4.7-2.8l4,2.3l-4.7,2.8L84.2,33.3L84.2,33.3z M86.7,43.3
						C86.7,43.3,86.8,43.2,86.7,43.3l4.7-2.8l4,2.3l-4.7,2.8L86.7,43.3L86.7,43.3z M88,8.2C88,8.1,88,8.1,88,8.2l4.7-2.8l4,2.3
						L92,10.5L88,8.2L88,8.2z M88.3,18.6C88.3,18.6,88.3,18.6,88.3,18.6l4.7-2.8l4,2.3L92.2,21L88.3,18.6L88.3,18.6z M89.8,28
						C89.8,28,89.8,28,89.8,28l4.7-2.8l4,2.3l-4.7,2.8L89.8,28L89.8,28z M90,53.7C90,53.7,90,53.6,90,53.7l4.7-2.8l5,2.9L95,56.6
						L90,53.7L90,53.7z M90.7,37C90.7,37,90.7,37,90.7,37l4.7-2.8l4,2.3l-4.7,2.8L90.7,37L90.7,37z M93.3,47
						C93.3,47,93.3,47,93.3,47l4.7-2.8l4,2.3l-4.7,2.8L93.3,47L93.3,47z M94.8,22.4C94.8,22.4,94.8,22.3,94.8,22.4l4.7-2.8l4,2.3
						l-4.7,2.8L94.8,22.4L94.8,22.4z M96.3,31.8C96.3,31.8,96.4,31.7,96.3,31.8l4.7-2.8l4,2.3l-4.7,2.8L96.3,31.8L96.3,31.8z
						 M97.2,40.8C97.2,40.8,97.2,40.8,97.2,40.8L102,38l4,2.3l-4.7,2.8L97.2,40.8L97.2,40.8z M97.4,13.6
						C97.4,13.5,97.4,13.5,97.4,13.6l4.7-2.8l4,2.3l-4.7,2.8L97.4,13.6L97.4,13.6z M97.6,58C97.6,58,97.6,58,97.6,58l4.7-2.8l5,2.9
						l-4.7,2.8L97.6,58L97.6,58z M99.8,50.8C99.8,50.8,99.8,50.8,99.8,50.8l4.7-2.8l4,2.3l-4.7,2.8L99.8,50.8L99.8,50.8z
						 M101.3,26.1C101.3,26.1,101.3,26.1,101.3,26.1l4.7-2.8l4,2.3l-4.7,2.8L101.3,26.1L101.3,26.1z M102.9,35.6
						C102.9,35.5,102.9,35.5,102.9,35.6l4.7-2.8l4,2.3l-4.7,2.8L102.9,35.6L102.9,35.6z M103.7,44.6
						C103.7,44.5,103.8,44.5,103.7,44.6l4.7-2.8l4,2.3l-4.7,2.8L103.7,44.6L103.7,44.6z M103.9,17.3
						C103.9,17.3,103.9,17.3,103.9,17.3l4.7-2.8l4,2.3l-4.7,2.8L103.9,17.3L103.9,17.3z M105.1,62.4
						C105.1,62.4,105.1,62.3,105.1,62.4l4.7-2.8l6.4,3.7l-4.7,2.8L105.1,62.4L105.1,62.4z M106.3,54.6
						C106.3,54.5,106.3,54.5,106.3,54.6l4.7-2.8l12.6,7.3l-4.7,2.8L106.3,54.6L106.3,54.6z M107.8,29.9
						C107.8,29.9,107.9,29.9,107.8,29.9l4.7-2.8l4,2.3l-4.7,2.8L107.8,29.9L107.8,29.9z M109.4,39.3
						C109.4,39.3,109.4,39.3,109.4,39.3l4.7-2.8l4,2.3l-4.7,2.8L109.4,39.3L109.4,39.3z M110.3,48.3
						C110.3,48.3,110.3,48.3,110.3,48.3l4.7-2.8l4,2.3l-4.7,2.8L110.3,48.3L110.3,48.3z M110.5,21.1C110.5,21.1,110.5,21,110.5,21.1
						l4.7-2.8l4,2.3l-4.7,2.8L110.5,21.1L110.5,21.1z M114.4,33.7C114.4,33.7,114.4,33.6,114.4,33.7l4.7-2.8l4,2.3l-4.7,2.8
						L114.4,33.7L114.4,33.7z M115.4,68.3C115.4,68.3,115.4,68.3,115.4,68.3l4.7-2.8l4,2.3l-4.7,2.8L115.4,68.3L115.4,68.3z
						 M115.9,43.1C115.9,43.1,115.9,43,115.9,43.1l4.7-2.8l4,2.3l-4.7,2.8L115.9,43.1L115.9,43.1z M116.8,52.1
						C116.8,52.1,116.8,52.1,116.8,52.1l4.7-2.8l3.6,2.1c0.4,0.2,0.8,0.2,1.1,0.2c0.4,0,0.8-0.1,1.2-0.2l6.2-3.6l4.7,2.7l-12.1,7.1
						L116.8,52.1L116.8,52.1z M117,24.9C117,24.8,117,24.8,117,24.9l4.7-2.8l4,2.3l-4.7,2.8L117,24.9L117,24.9z M120.9,37.4
						C120.9,37.4,120.9,37.4,120.9,37.4l4.7-2.8l4,2.3l-4.7,2.8L120.9,37.4L120.9,37.4z M122,72.1C122,72.1,122,72.1,122,72.1
						l4.7-2.8l4,2.3l-4.7,2.8L122,72.1L122,72.1z M122.4,46.9C122.4,46.8,122.5,46.8,122.4,46.9l4.7-2.8l4,2.3l-4.7,2.8L122.4,46.9
						L122.4,46.9z M126.3,30.3C126.3,30.2,126.4,30.2,126.3,30.3l4.7-2.8l4,2.3l-4.7,2.8L126.3,30.3L126.3,30.3z M127.4,41.2
						C127.4,41.2,127.4,41.2,127.4,41.2l4.7-2.8l4,2.3l-4.7,2.8L127.4,41.2L127.4,41.2z M128.5,75.9
						C128.5,75.8,128.5,75.8,128.5,75.9l4.7-2.8l4,2.3l-4.7,2.8L128.5,75.9L128.5,75.9z M129.3,67.8
						C129.3,67.8,129.3,67.8,129.3,67.8l4.7-2.8l4,2.3l-4.7,2.8L129.3,67.8L129.3,67.8z M132.9,34C132.9,34,132.9,34,132.9,34
						l4.7-2.8l4,2.3l-4.7,2.8L132.9,34L132.9,34z M133.9,45C133.9,44.9,134,44.9,133.9,45l4.7-2.8l7.1,4.1l-4.7,2.8L133.9,45
						L133.9,45z M136.4,80.4C136.4,80.4,136.4,80.4,136.4,80.4l4.7-2.8l10.5,6.1l-4.7,2.8L136.4,80.4L136.4,80.4z M137.6,55.6
						C137.6,55.5,137.6,55.5,137.6,55.6l4.7-2.8l4,2.3l-4.7,2.8L137.6,55.6L137.6,55.6z M139.4,37.8
						C139.4,37.8,139.4,37.7,139.4,37.8l4.7-2.8l4,2.3l-4.7,2.8L139.4,37.8L139.4,37.8z M143.8,76.2
						C143.8,76.1,143.8,76.1,143.8,76.2l4.7-2.8l4,2.3l-4.7,2.8L143.8,76.2L143.8,76.2z M144.1,59.3
						C144.1,59.3,144.1,59.3,144.1,59.3l4.7-2.8l4,2.3l-4.7,2.8L144.1,59.3L144.1,59.3z M144.9,51.3
						C144.9,51.3,144.9,51.3,144.9,51.3l4.7-2.8l4,2.3l-4.7,2.8L144.9,51.3L144.9,51.3z M145.9,41.6
						C145.9,41.5,145.9,41.5,145.9,41.6l4.7-2.8l4,2.3l-4.7,2.8L145.9,41.6L145.9,41.6z M149.4,88C149.4,87.9,149.4,87.9,149.4,88
						l4.7-2.8l4,2.3l-4.7,2.8L149.4,88L149.4,88z M150.3,79.9C150.3,79.9,150.3,79.9,150.3,79.9l4.7-2.8l4,2.3l-4.7,2.8L150.3,79.9
						L150.3,79.9z M150.6,63.1C150.6,63.1,150.6,63.1,150.6,63.1l4.7-2.8l4,2.3l-4.7,2.8L150.6,63.1L150.6,63.1z M151.1,71.9
						C151.1,71.9,151.1,71.9,151.1,71.9l4.7-2.8l4,2.3l-4.7,2.8L151.1,71.9L151.1,71.9z M151.5,55.1C151.5,55.1,151.5,55,151.5,55.1
						l4.7-2.8l4,2.3l-4.7,2.8L151.5,55.1L151.5,55.1z M153.9,46.2C153.9,46.1,153.9,46.1,153.9,46.2l4.7-2.8l4,2.3l-4.7,2.8
						L153.9,46.2L153.9,46.2z M156,91.7C156,91.7,156,91.7,156,91.7l12.1-7l4,2.3l-12.1,7.1L156,91.7L156,91.7z M156.8,83.7
						C156.8,83.7,156.8,83.7,156.8,83.7l4.7-2.8l4,2.3l-4.7,2.8L156.8,83.7L156.8,83.7z M157.7,75.7
						C157.7,75.7,157.7,75.6,157.7,75.7l4.7-2.8l4,2.3l-4.7,2.8L157.7,75.7L157.7,75.7z M158,58.8C158,58.8,158,58.8,158,58.8
						l4.7-2.8l4,2.3l-4.7,2.8L158,58.8L158,58.8z M158.5,67.7C158.5,67.6,158.5,67.6,158.5,67.7l4.7-2.8l4,2.3l-4.7,2.8L158.5,67.7
						L158.5,67.7z M160.4,49.9C160.4,49.9,160.4,49.9,160.4,49.9l4.7-2.8l4,2.3l-4.7,2.8L160.4,49.9L160.4,49.9z M164.2,79.4
						C164.2,79.4,164.2,79.4,164.2,79.4l4.7-2.8l4,2.3l-4.7,2.8L164.2,79.4L164.2,79.4z M165,71.4C165,71.4,165,71.4,165,71.4
						l4.7-2.8l4,2.3l-4.7,2.8L165,71.4L165,71.4z M165.9,63.4C165.9,63.4,165.9,63.4,165.9,63.4l4.7-2.8l4,2.3l-4.7,2.8L165.9,63.4
						L165.9,63.4z M166.9,53.7C166.9,53.7,166.9,53.6,166.9,53.7l4.7-2.8l4,2.3l-4.7,2.8L166.9,53.7L166.9,53.7z M170.7,83.2
						C170.7,83.2,170.7,83.2,170.7,83.2l12.1-7l4,2.3l-12.1,7.1L170.7,83.2L170.7,83.2z M171.6,75.2
						C171.6,75.2,171.6,75.1,171.6,75.2l4.7-2.8l4,2.3l-4.7,2.8L171.6,75.2L171.6,75.2z M172.4,67.2
						C172.4,67.1,172.4,67.1,172.4,67.2l4.7-2.8l4,2.3l-4.7,2.8L172.4,67.2L172.4,67.2z M176.7,57.1
						C176.7,57.1,176.7,57.1,176.7,57.1l2-1.2l4,2.3l-2,1.3L176.7,57.1L176.7,57.1z M178.9,70.9C178.9,70.9,178.9,70.9,178.9,70.9
						l4.7-2.8l4,2.3l-4.7,2.8L178.9,70.9L178.9,70.9z M183.3,60.9C183.3,60.9,183.3,60.9,183.3,60.9l2-1.2l4,2.3l-2,1.3L183.3,60.9
						L183.3,60.9z M185.5,74.7C185.5,74.7,185.5,74.7,185.5,74.7l4.7-2.8l4,2.3l-4.7,2.8L185.5,74.7L185.5,74.7z M189.8,64.7
						C189.8,64.7,189.8,64.6,189.8,64.7l2-1.2l4,2.3l-2,1.3L189.8,64.7L189.8,64.7z M196.3,68.4C196.3,68.4,196.3,68.4,196.3,68.4
						l2-1.2l4,2.3l-2,1.3L196.3,68.4L196.3,68.4z"/>
				</g>
			</g>
			<g transform="translate(157.351 25.521)">
				<path class="st8" d="M262.3,258.2l44.6-25.7L84.1,103.8l-44.6,25.7L262.3,258.2z"/>
				<g transform="translate(5.229)">
					<g transform="translate(36.949 151.61)">
						<path class="st10" d="M94,64.7L62.2,46.3c-3.3-1.9-4.9-4.4-4.9-6.9c0-2.5,0-4.4,0-4.4l29.9-17c1.9-1.2,3-3.3,3.2-5.5v-39.2
							l55.6,32.1v39.2c-0.1,2.2-1.3,4.3-3.2,5.5l-25,14.6C111.2,68.5,100.5,68.5,94,64.7z"/>
						<path class="st11" d="M132.6,51.6V56l10.2-5.9c1.9-1.2,3-3.3,3.2-5.5V5.4l-10.6-6.1c-0.2,2.7-0.5,5.5-0.7,8.2l7.4,4.3v30.6
							c-0.1,2.2-1.3,4.3-3.2,5.5L132.6,51.6z"/>
						<path class="st12" d="M142.1,42.5c-0.1,2.2-1.3,4.3-3.2,5.5l-21.2,12.3c-6.6,3.8-17.2,3.8-23.7,0L62.2,41.9
							c-6.6-3.8-6.6-9.9,0-13.7l21.2-12.4c1.9-1.2,3-3.3,3.2-5.5v-30.6l55.6,32.1V42.5z"/>
						<path class="st13" d="M76.9,19.6L76.9,19.6l6.4-3.7c1.9-1.2,3-3.3,3.2-5.5v-30.6l55.6,32.1v30.6c-0.1,2.2-1.3,4.3-3.2,5.5
							l-6.3,3.7L76.9,19.6z"/>
						<path class="st13" d="M57.2,35v4.4c0,2.5,1.6,5,4.9,6.9L94,64.7c3.5,1.9,7.4,2.8,11.3,2.8v-4.4c-4,0-7.8-1-11.3-2.8L62.2,41.9
							C58.9,40,57.2,37.5,57.2,35z"/>
					</g>
					<path class="st3" d="M268.2,236.4c-2.4,1.2-5.3,1.1-7.7-0.1l-214.9-124c-2.3-1.5-3.8-4.1-4-6.9V-82.7c-0.2-4.1,3.1-7.6,7.2-7.7
						c1.5-0.1,3,0.3,4.2,1.1L268,34.7c2.3,1.5,3.8,4.1,4,6.9v188.1C271.8,232.4,270.5,234.9,268.2,236.4z"/>
					<path class="st2" d="M260.5,236.2l-214.9-124c-2.3-1.5-3.8-4.1-4-6.9V-82.7c0-2.5,1.8-3.5,4-2.3L260.5,39
						c2.3,1.5,3.8,4.1,4,6.9v188.1C264.5,236.5,262.7,237.5,260.5,236.2z"/>
					<path class="st11" d="M261.1,237c3.6,1.9,8.1,0.5,10-3.2c0.6-1.1,0.9-2.4,0.8-3.7V209l-7.4,4.3v21.2
						C264.5,236.7,263,237.8,261.1,237z"/>
					<path class="st14" d="M264.5,213.3v21.2c0,2.5-1.8,3.5-4,2.3l-214.9-124c-2.3-1.5-3.8-4.1-4-6.9V84.7L264.5,213.3z"/>
					<path class="st4" d="M257.1,197.2V48.3c-0.1-1.7-1-3.2-2.4-4.1L51.5-73.1c-1.3-0.8-2.4-0.1-2.4,1.4l0,148.8
						c0.1,1.7,1,3.2,2.4,4.1l203.2,117.3C256,199.3,257.1,198.7,257.1,197.2z"/>
					<path class="st15" d="M257.1,197.2V48.3c-0.1-1.7-1-3.2-2.4-4.1L51.5-73.1c-1.3-0.8-2.4-0.1-2.4,1.4l0,148.8
						c0.1,1.7,1,3.2,2.4,4.1l203.2,117.3C256,199.3,257.1,198.7,257.1,197.2z"/>
					<path class="st3" d="M153.1,157.1c2.2,1.4,3.6,3.8,3.7,6.4c0,2.4-1.7,3.3-3.7,2.1c-2.2-1.4-3.6-3.8-3.7-6.4
						C149.4,156.8,151.1,155.9,153.1,157.1z"/>
					<path class="st9" d="M263.3,42c0.7,1.2,1.1,2.5,1.2,3.9v167.4l7.4-4.3V41.6c-0.1-1.4-0.5-2.7-1.2-3.9L263.3,42z"/>
				</g>
			</g>
			<g transform="translate(187.325)">
				<path class="st3" d="M52.1-96c0-0.1,0-0.2,0.1-0.3c0,0,0-0.1,0-0.1c0-0.1,0-0.2,0.1-0.3c0-0.2,0.1-0.3,0.2-0.5
					c0-0.1,0.1-0.1,0.1-0.2c0-0.1,0.1-0.1,0.1-0.1c0.1-0.1,0.2-0.2,0.2-0.2l0,0c0.1-0.1,0.2-0.1,0.3-0.2c0.9-0.3,1.8-0.2,2.6,0.3
					L306.6,46.9c2.2,1.5,3.6,3.9,3.8,6.6V235v0v0.8c0,1-0.5,1.8-1.4,2.3l-0.2,0.1c-0.1,0-0.1,0.1-0.2,0.1c-0.1,0.1-0.2,0.1-0.3,0.1
					c-0.2,0-0.3,0.1-0.5,0.1c-0.4,0-0.9-0.1-1.3-0.4l-0.1-0.1h0l-3.6-2.1L55.9,93.4c-2.2-1.5-3.6-3.9-3.8-6.6V-95.6
					C52.1-95.7,52.1-95.9,52.1-96z"/>
				<g transform="translate(0.007)">
					<path class="st4" d="M53.4-98.1c0.9-0.3,1.8-0.2,2.6,0.3L306.6,46.9c2.2,1.5,3.6,3.9,3.8,6.6v12.4l4.8-2.8V50.8
						c-0.1-2.7-1.5-5.1-3.8-6.6L60.7-100.5c-0.8-0.6-1.9-0.7-2.7-0.2C57.3-100.3,54.2-98.5,53.4-98.1z"/>
					<path class="st4" d="M52.1-95.6c0-2.4,1.7-3.4,3.8-2.2L306.6,46.9c2.2,1.5,3.6,3.9,3.8,6.6v12.4L52.1-83.2V-95.6z"/>
					<path class="st15" d="M55.9-97.8L306.6,46.9c1.1,0.7,2,1.7,2.7,2.8l4.8-2.8c-0.6-1.1-1.5-2.1-2.6-2.8L60.7-100.5
						c-0.8-0.6-1.9-0.7-2.8-0.2c-0.7,0.4-3.8,2.2-4.6,2.6C54.2-98.4,55.2-98.3,55.9-97.8z"/>
					<path class="st8" d="M315.3,63.1V50.8c-0.1-1.3-0.4-2.6-1.2-3.8l-4.8,2.8c0.7,1.1,1.1,2.4,1.1,3.8v12.4L315.3,63.1z"/>
				</g>
				<g transform="translate(163.573 99.618)">
					<path class="st3" d="M138.3-50.1c1.4,1.1,2.2,2.8,2.1,4.5c0,1.8-1,2.7-2.1,2.1c-1.4-1.1-2.2-2.8-2.1-4.5
						C136.2-49.8,137.1-50.7,138.3-50.1z"/>
					<path class="st3" d="M130.6-54.5c1.4,1.1,2.2,2.8,2.1,4.5c0,1.8-1,2.7-2.1,2.1c-1.4-1.1-2.2-2.8-2.1-4.5
						C128.5-54.3,129.4-55.2,130.6-54.5z"/>
					<path class="st3" d="M122.9-59c1.4,1.1,2.2,2.8,2.1,4.5c0,1.8-1,2.7-2.1,2.1c-1.4-1.1-2.2-2.8-2.1-4.5
						C120.8-58.7,121.7-59.6,122.9-59z"/>
				</g>
				<path class="st16" d="M309.1,238.1l0.2-0.1l4-2.3c1.1-0.6,1.8-1.7,2-2.9c0-0.2,0-0.4,0-0.6V63.1l-4.8,2.8v169.9
					c0,0.9-0.4,1.7-1.2,2.2C309.2,238,309.2,238.1,309.1,238.1C309.1,238.1,309.1,238.1,309.1,238.1L309.1,238.1z"/>
				<g transform="translate(4.335 22.631)">
					<g transform="translate(48.819 35.29)">
						<path class="st4" d="M75.8-76.5L128.6-46c0.8,0.5,1.3,1.3,1.3,2.2c0,0.8-0.6,1.1-1.3,0.7L75.8-73.6c-0.8-0.5-1.3-1.3-1.3-2.2
							C74.4-76.6,75-76.9,75.8-76.5z"/>
						<path class="st10" d="M96-18.2l20,11.5c0.8,0.5,1.3,1.3,1.3,2.2c0,0.8-0.6,1.1-1.3,0.7L96-15.3c-0.8-0.5-1.3-1.3-1.3-2.2
							C94.6-18.3,95.2-18.6,96-18.2z"/>
						<path class="st10" d="M96-6.5L116,5c0.8,0.5,1.3,1.3,1.3,2.2c0,0.8-0.6,1.1-1.3,0.7L96-3.6c-0.8-0.5-1.3-1.3-1.3-2.2
							C94.6-6.6,95.2-6.9,96-6.5z"/>
						<path class="st4" d="M133.9-43l105.8,61c0.8,0.5,1.3,1.3,1.3,2.2c0,0.8-0.6,1.1-1.3,0.7l-105.8-61c-0.8-0.5-1.3-1.3-1.3-2.2
							C132.5-43.1,133.1-43.5,133.9-43z"/>
						<path class="st4" d="M96.4,63.6l32.2,18.6c0.8,0.5,1.3,1.3,1.3,2.2c0,0.8-0.6,1.1-1.3,0.7L96.4,66.5c-0.8-0.5-1.3-1.3-1.3-2.2
							C95.1,63.5,95.7,63.2,96.4,63.6z"/>
						<path class="st4" d="M133.9,85.3l105.8,61c0.8,0.5,1.3,1.3,1.3,2.2c0,0.8-0.6,1.1-1.3,0.7l-105.8-61c-0.8-0.5-1.3-1.3-1.3-2.2
							C132.5,85.1,133.1,84.8,133.9,85.3z"/>
						<g transform="translate(0 8.233)">
							<path class="st4" d="M75.8-73l26.6,15.3c0.8,0.5,1.3,1.3,1.3,2.2c0,0.8-0.6,1.1-1.3,0.7L75.8-70.1c-0.8-0.5-1.3-1.3-1.3-2.2
								C74.4-73.2,75-73.5,75.8-73z"/>
							<path class="st17" d="M75.8-73l26.6,15.3c0.8,0.5,1.3,1.3,1.3,2.2c0,0.8-0.6,1.1-1.3,0.7L75.8-70.1c-0.8-0.5-1.3-1.3-1.3-2.2
								C74.4-73.2,75-73.5,75.8-73z"/>
						</g>
						<g transform="translate(0 16.433)">
							<path class="st4" d="M75.8-69.6l12.5,7.2c0.8,0.5,1.3,1.3,1.3,2.2c0,0.8-0.6,1.1-1.3,0.7l-12.5-7.2c-0.8-0.5-1.3-1.3-1.3-2.2
								C74.4-69.7,75-70,75.8-69.6z"/>
							<path class="st17" d="M75.8-69.6l12.5,7.2c0.8,0.5,1.3,1.3,1.3,2.2c0,0.8-0.6,1.1-1.3,0.7l-12.5-7.2
								c-0.8-0.5-1.3-1.3-1.3-2.2C74.4-69.7,75-70,75.8-69.6z"/>
						</g>
						<g transform="translate(0 32.861)">
							<path class="st4" d="M75.8-62.7l12.5,7.2c0.8,0.5,1.3,1.3,1.3,2.2c0,0.8-0.6,1.1-1.3,0.7l-12.5-7.2c-0.8-0.5-1.3-1.3-1.3-2.2
								C74.4-62.8,75-63.1,75.8-62.7z"/>
							<path class="st17" d="M75.8-62.7l12.5,7.2c0.8,0.5,1.3,1.3,1.3,2.2c0,0.8-0.6,1.1-1.3,0.7l-12.5-7.2
								c-0.8-0.5-1.3-1.3-1.3-2.2C74.4-62.8,75-63.1,75.8-62.7z"/>
						</g>
						<g transform="translate(0 41.075)">
							<path class="st4" d="M75.8-59.3l12.5,7.2c0.8,0.5,1.3,1.3,1.3,2.2c0,0.8-0.6,1.1-1.3,0.7l-12.5-7.2c-0.8-0.5-1.3-1.3-1.3-2.2
								C74.4-59.4,75-59.7,75.8-59.3z"/>
							<path class="st17" d="M75.8-59.3l12.5,7.2c0.8,0.5,1.3,1.3,1.3,2.2c0,0.8-0.6,1.1-1.3,0.7l-12.5-7.2
								c-0.8-0.5-1.3-1.3-1.3-2.2C74.4-59.4,75-59.7,75.8-59.3z"/>
						</g>
						<g transform="translate(22.429 21.132)">
							<path class="st4" d="M85.2-67.6l16,9.2c0.8,0.5,1.3,1.3,1.3,2.2c0,0.8-0.6,1.1-1.3,0.7l-16-9.2c-0.8-0.5-1.3-1.3-1.3-2.2
								C83.8-67.8,84.4-68.1,85.2-67.6z"/>
							<path class="st17" d="M85.2-67.6l16,9.2c0.8,0.5,1.3,1.3,1.3,2.2c0,0.8-0.6,1.1-1.3,0.7l-16-9.2c-0.8-0.5-1.3-1.3-1.3-2.2
								C83.8-67.8,84.4-68.1,85.2-67.6z"/>
						</g>
						<g transform="translate(39.823 80.516)">
							<path class="st14" d="M92.5-42.7l107.4,61.8c0.8,0.5,1.3,1.3,1.3,2.2c0,0.8-0.6,1.1-1.3,0.7L92.5-39.8
								c-0.8-0.5-1.3-1.3-1.3-2.2C91.1-42.8,91.7-43.1,92.5-42.7z"/>
						</g>
						<g transform="translate(104.208 109.319)">
							<path class="st14" d="M119.5-30.6l16,9.2c0.8,0.5,1.3,1.3,1.3,2.2c0,0.8-0.6,1.1-1.3,0.7l-16-9.2c-0.8-0.5-1.3-1.3-1.3-2.2
								C118.2-30.7,118.8-31,119.5-30.6z"/>
						</g>
						<g transform="translate(24.9 63.652)">
							<path class="st14" d="M86.2-49.8L193.6,12c0.8,0.5,1.3,1.3,1.3,2.2c0,0.8-0.6,1.1-1.3,0.7L86.2-46.9
								c-0.8-0.5-1.3-1.3-1.3-2.2C84.9-49.9,85.5-50.2,86.2-49.8z"/>
						</g>
						<g transform="translate(14.227 24.648)">
							<path class="st4" d="M81.7-66.2l26.6,15.3c0.8,0.5,1.3,1.3,1.3,2.2c0,0.8-0.6,1.1-1.3,0.7L81.7-63.2
								c-0.8-0.5-1.3-1.3-1.3-2.2C80.4-66.3,81-66.6,81.7-66.2z"/>
							<path class="st17" d="M81.7-66.2l26.6,15.3c0.8,0.5,1.3,1.3,1.3,2.2c0,0.8-0.6,1.1-1.3,0.7L81.7-63.2
								c-0.8-0.5-1.3-1.3-1.3-2.2C80.4-66.3,81-66.6,81.7-66.2z"/>
						</g>
						<g transform="translate(36.658 37.545)">
							<path class="st4" d="M91.2-60.7L202.2,3.5c0.8,0.5,1.3,1.3,1.3,2.2c0,0.8-0.6,1.1-1.3,0.7L91.2-57.8
								c-0.8-0.5-1.3-1.3-1.3-2.2C89.8-60.9,90.4-61.2,91.2-60.7z"/>
							<path class="st17" d="M91.2-60.7L202.2,3.5c0.8,0.5,1.3,1.3,1.3,2.2c0,0.8-0.6,1.1-1.3,0.7L91.2-57.8
								c-0.8-0.5-1.3-1.3-1.3-2.2C89.8-60.9,90.4-61.2,91.2-60.7z"/>
						</g>
						<path class="st10" d="M96,28.7l143.7,82.9c0.8,0.5,1.3,1.3,1.3,2.2c0,0.8-0.6,1.1-1.3,0.7L96,31.6c-0.8-0.5-1.3-1.3-1.3-2.2
							C94.6,28.6,95.2,28.3,96,28.7z"/>
						<g transform="translate(0 65.889)">
							<path class="st4" d="M75.8-48.8l12.5,7.2c0.8,0.5,1.3,1.3,1.3,2.2c0,0.8-0.6,1.1-1.3,0.7l-12.5-7.2c-0.8-0.5-1.3-1.3-1.3-2.2
								C74.4-49,75-49.3,75.8-48.8z"/>
							<path class="st17" d="M75.8-48.8l12.5,7.2c0.8,0.5,1.3,1.3,1.3,2.2c0,0.8-0.6,1.1-1.3,0.7l-12.5-7.2
								c-0.8-0.5-1.3-1.3-1.3-2.2C74.4-49,75-49.3,75.8-48.8z"/>
						</g>
						<path class="st10" d="M96,40.4l143.7,82.9c0.8,0.5,1.3,1.3,1.3,2.2c0,0.8-0.6,1.1-1.3,0.7L96,43.3c-0.8-0.5-1.3-1.3-1.3-2.2
							C94.6,40.2,95.2,39.9,96,40.4z"/>
						<g transform="translate(0 74.101)">
							<path class="st4" d="M75.8-45.4l12.5,7.2c0.8,0.5,1.3,1.3,1.3,2.2c0,0.8-0.6,1.1-1.3,0.7l-12.5-7.2c-0.8-0.5-1.3-1.3-1.3-2.2
								C74.4-45.5,75-45.8,75.8-45.4z"/>
							<path class="st17" d="M75.8-45.4l12.5,7.2c0.8,0.5,1.3,1.3,1.3,2.2c0,0.8-0.6,1.1-1.3,0.7l-12.5-7.2
								c-0.8-0.5-1.3-1.3-1.3-2.2C74.4-45.5,75-45.8,75.8-45.4z"/>
						</g>
						<path class="st10" d="M96,52l143.7,82.9c0.8,0.5,1.3,1.3,1.3,2.2c0,0.8-0.6,1.1-1.3,0.7L96,54.9c-0.8-0.5-1.3-1.3-1.3-2.2
							C94.6,51.9,95.2,51.6,96,52z"/>
						<g transform="translate(0 82.312)">
							<path class="st4" d="M75.8-41.9l12.5,7.2c0.8,0.5,1.3,1.3,1.3,2.2c0,0.8-0.6,1.1-1.3,0.7L75.8-39c-0.8-0.5-1.3-1.3-1.3-2.2
								C74.4-42.1,75-42.4,75.8-41.9z"/>
							<path class="st17" d="M75.8-41.9l12.5,7.2c0.8,0.5,1.3,1.3,1.3,2.2c0,0.8-0.6,1.1-1.3,0.7L75.8-39c-0.8-0.5-1.3-1.3-1.3-2.2
								C74.4-42.1,75-42.4,75.8-41.9z"/>
						</g>
					</g>
					<g transform="translate(35.153 27.063)" class="st18">
						<path class="st14" d="M70-80l7.3,4.2c0.8,0.5,1.3,1.4,1.3,2.3v2.7c0,0.9-0.6,1.2-1.3,0.8L70-74.2c-0.8-0.5-1.3-1.4-1.3-2.3
							v-2.7C68.7-80,69.3-80.4,70-80z"/>
						<path class="st14" d="M70-68.2l7.3,4.2c0.8,0.5,1.3,1.4,1.3,2.3v2.7c0,0.9-0.6,1.2-1.3,0.8L70-62.4c-0.8-0.5-1.3-1.4-1.3-2.3
							v-2.7C68.7-68.3,69.3-68.6,70-68.2z"/>
						<path class="st14" d="M70-56.4l7.3,4.2c0.8,0.5,1.3,1.4,1.3,2.3v2.7c0,0.9-0.6,1.2-1.3,0.8L70-50.7c-0.8-0.5-1.3-1.4-1.3-2.3
							v-2.7C68.7-56.5,69.3-56.8,70-56.4z"/>
						<path class="st14" d="M70-44.6l7.3,4.2c0.8,0.5,1.3,1.4,1.3,2.3v2.7c0,0.9-0.6,1.2-1.3,0.8L70-38.9c-0.8-0.5-1.3-1.4-1.3-2.3
							v-2.7C68.7-44.7,69.3-45.1,70-44.6z"/>
						<path class="st14" d="M70-32.9l7.3,4.2c0.8,0.5,1.3,1.4,1.3,2.3v2.7c0,0.9-0.6,1.2-1.3,0.8L70-27.1c-0.8-0.5-1.3-1.4-1.3-2.3
							v-2.7C68.7-33,69.3-33.3,70-32.9z"/>
						<path class="st14" d="M70-21.1l7.3,4.2c0.8,0.5,1.3,1.4,1.3,2.3v2.7c0,0.9-0.6,1.2-1.3,0.8L70-15.3c-0.8-0.5-1.3-1.4-1.3-2.3
							v-2.7C68.7-21.2,69.3-21.5,70-21.1z"/>
						<path class="st14" d="M70-9.3l7.3,4.2c0.8,0.5,1.3,1.4,1.3,2.3v2.7c0,0.9-0.6,1.2-1.3,0.8L70-3.6c-0.8-0.5-1.3-1.4-1.3-2.3
							v-2.7C68.7-9.4,69.3-9.8,70-9.3z"/>
						<path class="st14" d="M70,2.4l7.3,4.2C78.1,7.2,78.6,8,78.7,9v2.7c0,0.9-0.6,1.2-1.3,0.8L70,8.2c-0.8-0.5-1.3-1.4-1.3-2.3V3.2
							C68.7,2.4,69.3,2,70,2.4z"/>
						<path class="st14" d="M70,14.2l7.3,4.2c0.8,0.5,1.3,1.4,1.3,2.3v2.7c0,0.9-0.6,1.2-1.3,0.8L70,20c-0.8-0.5-1.3-1.4-1.3-2.3V15
							C68.7,14.1,69.3,13.8,70,14.2z"/>
						<path class="st14" d="M70,26l7.3,4.2c0.8,0.5,1.3,1.4,1.3,2.3v2.7c0,0.9-0.6,1.2-1.3,0.8L70,31.8c-0.8-0.5-1.3-1.4-1.3-2.3
							v-2.7C68.7,25.9,69.3,25.6,70,26z"/>
						<path class="st14" d="M70,37.8l7.3,4.2c0.8,0.5,1.3,1.4,1.3,2.3V47c0,0.9-0.6,1.2-1.3,0.8L70,43.5c-0.8-0.5-1.3-1.4-1.3-2.3
							v-2.7C68.7,37.7,69.3,37.3,70,37.8z"/>
						<path class="st14" d="M70,49.5l7.3,4.2c0.8,0.5,1.3,1.4,1.3,2.3v2.7c0,0.9-0.6,1.2-1.3,0.8L70,55.3c-0.8-0.5-1.3-1.4-1.3-2.3
							v-2.7C68.7,49.4,69.3,49.1,70,49.5z"/>
					</g>
					<path class="st2" d="M56.6-91.1l39.6,22.9c1.6,1,2.6,2.7,2.7,4.6V-18c0,1.7-1.2,2.4-2.7,1.5L56.6-39.3c-1.6-1-2.6-2.7-2.7-4.6
						v-45.7C53.9-91.3,55.1-92,56.6-91.1z"/>
					<g transform="translate(3.514 5.669)">
						<g transform="translate(0 26.374)">
							<path class="st4" d="M56.8-77.9l3.7,2.1c0.8,0.5,1.3,1.3,1.3,2.2c0,0.8-0.6,1.1-1.3,0.7l-3.6-2.1c-0.8-0.5-1.3-1.3-1.3-2.2
								C55.4-78,56-78.3,56.8-77.9z"/>
							<path class="st17" d="M56.8-77.9l3.7,2.1c0.8,0.5,1.3,1.3,1.3,2.2c0,0.8-0.6,1.1-1.3,0.7l-3.6-2.1c-0.8-0.5-1.3-1.3-1.3-2.2
								C55.4-78,56-78.3,56.8-77.9z"/>
						</g>
						<path class="st4" d="M56.8-88.9l3.7,2.1c0.8,0.5,1.3,1.3,1.3,2.2c0,0.8-0.6,1.1-1.3,0.7L56.8-86c-0.8-0.5-1.3-1.3-1.3-2.2
							C55.4-89.1,56-89.4,56.8-88.9z"/>
						<path class="st17" d="M56.8-88.9l3.7,2.1c0.8,0.5,1.3,1.3,1.3,2.2c0,0.8-0.6,1.1-1.3,0.7L56.8-86c-0.8-0.5-1.3-1.3-1.3-2.2
							C55.4-89.1,56-89.4,56.8-88.9z"/>
						<g transform="translate(3.609 7.346)">
							<path class="st4" d="M58.3-85.8l3.6,2.1c0.8,0.5,1.3,1.3,1.3,2.2c0,0.8-0.6,1.1-1.3,0.7l-3.6-2.1c-0.8-0.5-1.3-1.3-1.3-2.2
								C56.9-86,57.5-86.3,58.3-85.8z"/>
							<path class="st17" d="M58.3-85.8l3.6,2.1c0.8,0.5,1.3,1.3,1.3,2.2c0,0.8-0.6,1.1-1.3,0.7l-3.6-2.1c-0.8-0.5-1.3-1.3-1.3-2.2
								C56.9-86,57.5-86.3,58.3-85.8z"/>
						</g>
						<g transform="translate(3.609 12.607)">
							<path class="st4" d="M58.3-83.6l3.6,2.1c0.8,0.5,1.3,1.3,1.3,2.2c0,0.8-0.6,1.1-1.3,0.7l-3.6-2.1C57.5-81.2,57-82,56.9-83
								C56.9-83.8,57.5-84.1,58.3-83.6z"/>
							<path class="st17" d="M58.3-83.6l3.6,2.1c0.8,0.5,1.3,1.3,1.3,2.2c0,0.8-0.6,1.1-1.3,0.7l-3.6-2.1C57.5-81.2,57-82,56.9-83
								C56.9-83.8,57.5-84.1,58.3-83.6z"/>
						</g>
						<g transform="translate(0 15.82)">
							<path class="st4" d="M56.8-82.3l3.7,2.1c0.8,0.5,1.3,1.3,1.3,2.2c0,0.8-0.6,1.1-1.3,0.7l-3.6-2.1c-0.8-0.5-1.3-1.3-1.3-2.2
								C55.4-82.4,56-82.7,56.8-82.3z"/>
							<path class="st17" d="M56.8-82.3l3.7,2.1c0.8,0.5,1.3,1.3,1.3,2.2c0,0.8-0.6,1.1-1.3,0.7l-3.6-2.1c-0.8-0.5-1.3-1.3-1.3-2.2
								C55.4-82.4,56-82.7,56.8-82.3z"/>
						</g>
						<g transform="translate(3.609 23.172)">
							<path class="st4" d="M58.3-79.2l3.6,2.1c0.8,0.5,1.3,1.3,1.3,2.2c0,0.8-0.6,1.1-1.3,0.7l-3.6-2.1c-0.8-0.5-1.3-1.3-1.3-2.2
								C56.9-79.3,57.5-79.6,58.3-79.2z"/>
							<path class="st17" d="M58.3-79.2l3.6,2.1c0.8,0.5,1.3,1.3,1.3,2.2c0,0.8-0.6,1.1-1.3,0.7l-3.6-2.1c-0.8-0.5-1.3-1.3-1.3-2.2
								C56.9-79.3,57.5-79.6,58.3-79.2z"/>
						</g>
					</g>
					<g transform="translate(10.545 9.731)">
						<path class="st4" d="M59.7-87.2L82-74.4c0.8,0.5,1.3,1.3,1.3,2.2c0,0.8-0.6,1.1-1.3,0.7L59.7-84.3c-0.8-0.5-1.3-1.3-1.3-2.2
							C58.4-87.4,59-87.7,59.7-87.2z"/>
						<path class="st19" d="M59.7-87.2L82-74.4c0.8,0.5,1.3,1.3,1.3,2.2c0,0.8-0.6,1.1-1.3,0.7L59.7-84.3c-0.8-0.5-1.3-1.3-1.3-2.2
							C58.4-87.4,59-87.7,59.7-87.2z"/>
						<g transform="translate(0 26.373)">
							<path class="st4" d="M59.7-76.2L82-63.3c0.8,0.5,1.3,1.3,1.3,2.2c0,0.8-0.6,1.1-1.3,0.7L59.7-73.2c-0.8-0.5-1.3-1.3-1.3-2.2
								C58.4-76.3,59-76.6,59.7-76.2z"/>
							<path class="st19" d="M59.7-76.2L82-63.3c0.8,0.5,1.3,1.3,1.3,2.2c0,0.8-0.6,1.1-1.3,0.7L59.7-73.2c-0.8-0.5-1.3-1.3-1.3-2.2
								C58.4-76.3,59-76.6,59.7-76.2z"/>
						</g>
						<g transform="translate(3.608 7.345)">
							<path class="st4" d="M61.2-84.1l17.1,9.9c0.8,0.5,1.3,1.3,1.3,2.2c0,0.8-0.6,1.1-1.3,0.7l-17.1-9.9c-0.8-0.5-1.3-1.3-1.3-2.2
								C59.9-84.3,60.5-84.6,61.2-84.1z"/>
							<path class="st19" d="M61.2-84.1l17.1,9.9c0.8,0.5,1.3,1.3,1.3,2.2c0,0.8-0.6,1.1-1.3,0.7l-17.1-9.9
								c-0.8-0.5-1.3-1.3-1.3-2.2C59.9-84.3,60.5-84.6,61.2-84.1z"/>
						</g>
						<g transform="translate(3.608 12.619)">
							<path class="st4" d="M61.2-81.9L78.4-72c0.8,0.5,1.3,1.3,1.3,2.2c0,0.8-0.6,1.1-1.3,0.7L61.2-79c-0.8-0.5-1.3-1.3-1.3-2.2
								C59.9-82.1,60.5-82.4,61.2-81.9z"/>
							<path class="st19" d="M61.2-81.9L78.4-72c0.8,0.5,1.3,1.3,1.3,2.2c0,0.8-0.6,1.1-1.3,0.7L61.2-79c-0.8-0.5-1.3-1.3-1.3-2.2
								C59.9-82.1,60.5-82.4,61.2-81.9z"/>
						</g>
						<g transform="translate(0 15.824)">
							<path class="st4" d="M59.7-80.6L82-67.7c0.8,0.5,1.3,1.3,1.3,2.2c0,0.8-0.6,1.1-1.3,0.7L59.7-77.7c-0.8-0.5-1.3-1.3-1.3-2.2
								C58.4-80.7,59-81,59.7-80.6z"/>
							<path class="st19" d="M59.7-80.6L82-67.7c0.8,0.5,1.3,1.3,1.3,2.2c0,0.8-0.6,1.1-1.3,0.7L59.7-77.7c-0.8-0.5-1.3-1.3-1.3-2.2
								C58.4-80.7,59-81,59.7-80.6z"/>
						</g>
						<g transform="translate(3.608 23.172)">
							<path class="st4" d="M61.2-77.5l17.1,9.9c0.8,0.5,1.3,1.3,1.3,2.2c0,0.8-0.6,1.1-1.3,0.7l-17.1-9.9c-0.8-0.5-1.3-1.3-1.3-2.2
								C59.9-77.6,60.5-77.9,61.2-77.5z"/>
							<path class="st19" d="M61.2-77.5l17.1,9.9c0.8,0.5,1.3,1.3,1.3,2.2c0,0.8-0.6,1.1-1.3,0.7l-17.1-9.9
								c-0.8-0.5-1.3-1.3-1.3-2.2C59.9-77.6,60.5-77.9,61.2-77.5z"/>
						</g>
					</g>
					<g transform="translate(0 42.59)">
						<path class="st2" d="M56.6-73.3l39.6,22.9c1.6,1,2.6,2.7,2.7,4.6v90.3c0,1.7-1.2,2.4-2.7,1.5L56.6,23.2
							c-1.6-1-2.6-2.7-2.7-4.6v-90.3C53.9-73.4,55.1-74.1,56.6-73.3z"/>
						<g transform="translate(3.514 5.67)">
							<path class="st4" d="M56.8-71.1l3.7,2.1c0.8,0.5,1.3,1.3,1.3,2.2c0,0.8-0.6,1.1-1.3,0.7l-3.6-2.1c-0.8-0.5-1.3-1.3-1.3-2.2
								C55.4-71.2,56-71.5,56.8-71.1z"/>
							<path class="st17" d="M56.8-71.1l3.7,2.1c0.8,0.5,1.3,1.3,1.3,2.2c0,0.8-0.6,1.1-1.3,0.7l-3.6-2.1c-0.8-0.5-1.3-1.3-1.3-2.2
								C55.4-71.2,56-71.5,56.8-71.1z"/>
							<g transform="translate(3.609 7.346)">
								<path class="st4" d="M58.3-68l3.6,2.1c0.8,0.5,1.3,1.3,1.3,2.2c0,0.8-0.6,1.1-1.3,0.7l-3.6-2.1c-0.8-0.5-1.3-1.3-1.3-2.2
									C56.9-68.1,57.5-68.4,58.3-68z"/>
								<path class="st17" d="M58.3-68l3.6,2.1c0.8,0.5,1.3,1.3,1.3,2.2c0,0.8-0.6,1.1-1.3,0.7l-3.6-2.1c-0.8-0.5-1.3-1.3-1.3-2.2
									C56.9-68.1,57.5-68.4,58.3-68z"/>
							</g>
							<g transform="translate(3.609 12.607)">
								<path class="st4" d="M58.3-65.8l3.6,2.1c0.8,0.5,1.3,1.3,1.3,2.2c0,0.8-0.6,1.1-1.3,0.7l-3.6-2.1c-0.8-0.5-1.3-1.3-1.3-2.2
									C56.9-65.9,57.5-66.2,58.3-65.8z"/>
								<path class="st17" d="M58.3-65.8l3.6,2.1c0.8,0.5,1.3,1.3,1.3,2.2c0,0.8-0.6,1.1-1.3,0.7l-3.6-2.1c-0.8-0.5-1.3-1.3-1.3-2.2
									C56.9-65.9,57.5-66.2,58.3-65.8z"/>
							</g>
							<g transform="translate(0 15.82)">
								<path class="st4" d="M56.8-64.4l3.7,2.1c0.8,0.5,1.3,1.3,1.3,2.2c0,0.8-0.6,1.1-1.3,0.7l-3.6-2.1c-0.8-0.5-1.3-1.3-1.3-2.2
									C55.4-64.5,56-64.8,56.8-64.4z"/>
								<path class="st17" d="M56.8-64.4l3.7,2.1c0.8,0.5,1.3,1.3,1.3,2.2c0,0.8-0.6,1.1-1.3,0.7l-3.6-2.1c-0.8-0.5-1.3-1.3-1.3-2.2
									C55.4-64.5,56-64.8,56.8-64.4z"/>
							</g>
						</g>
						<g transform="translate(3.514 9.731)">
							<g transform="translate(7.032)">
								<path class="st4" d="M59.7-69.3L82-56.5c0.8,0.5,1.3,1.3,1.3,2.2c0,0.8-0.6,1.1-1.3,0.7L59.7-66.4c-0.8-0.5-1.3-1.3-1.3-2.2
									C58.4-69.5,59-69.8,59.7-69.3z"/>
								<path class="st19" d="M59.7-69.3L82-56.5c0.8,0.5,1.3,1.3,1.3,2.2c0,0.8-0.6,1.1-1.3,0.7L59.7-66.4
									c-0.8-0.5-1.3-1.3-1.3-2.2C58.4-69.5,59-69.8,59.7-69.3z"/>
							</g>
							<g transform="translate(10.64 7.346)">
								<path class="st4" d="M61.2-66.3l17.1,9.9c0.8,0.5,1.3,1.3,1.3,2.2c0,0.8-0.6,1.1-1.3,0.7l-17.1-9.9
									c-0.8-0.5-1.3-1.3-1.3-2.2C59.9-66.4,60.5-66.7,61.2-66.3z"/>
								<path class="st19" d="M61.2-66.3l17.1,9.9c0.8,0.5,1.3,1.3,1.3,2.2c0,0.8-0.6,1.1-1.3,0.7l-17.1-9.9
									c-0.8-0.5-1.3-1.3-1.3-2.2C59.9-66.4,60.5-66.7,61.2-66.3z"/>
							</g>
							<g transform="translate(10.64 12.621)">
								<path class="st4" d="M61.2-64.1l17.1,9.9c0.8,0.5,1.3,1.3,1.3,2.2c0,0.8-0.6,1.1-1.3,0.7l-17.1-9.9
									c-0.8-0.5-1.3-1.3-1.3-2.2C59.9-64.2,60.5-64.5,61.2-64.1z"/>
								<path class="st19" d="M61.2-64.1l17.1,9.9c0.8,0.5,1.3,1.3,1.3,2.2c0,0.8-0.6,1.1-1.3,0.7l-17.1-9.9
									c-0.8-0.5-1.3-1.3-1.3-2.2C59.9-64.2,60.5-64.5,61.2-64.1z"/>
							</g>
							<g transform="translate(7.032 15.824)">
								<path class="st4" d="M59.7-62.7L82-49.9c0.8,0.5,1.3,1.3,1.3,2.2c0,0.8-0.6,1.1-1.3,0.7L59.7-59.8c-0.8-0.5-1.3-1.3-1.3-2.2
									C58.4-62.8,59-63.1,59.7-62.7z"/>
								<path class="st19" d="M59.7-62.7L82-49.9c0.8,0.5,1.3,1.3,1.3,2.2c0,0.8-0.6,1.1-1.3,0.7L59.7-59.8
									c-0.8-0.5-1.3-1.3-1.3-2.2C58.4-62.8,59-63.1,59.7-62.7z"/>
							</g>
							<g transform="translate(3.609 19.141)">
								<path class="st4" d="M58.3-61.3l3.6,2.1c0.8,0.5,1.3,1.3,1.3,2.2c0,0.8-0.6,1.1-1.3,0.7l-3.6-2.1c-0.8-0.5-1.3-1.3-1.3-2.2
									C56.9-61.4,57.5-61.7,58.3-61.3z"/>
								<path class="st17" d="M58.3-61.3l3.6,2.1c0.8,0.5,1.3,1.3,1.3,2.2c0,0.8-0.6,1.1-1.3,0.7l-3.6-2.1c-0.8-0.5-1.3-1.3-1.3-2.2
									C56.9-61.4,57.5-61.7,58.3-61.3z"/>
							</g>
							<g transform="translate(3.609 24.402)">
								<path class="st4" d="M58.3-59.1l3.6,2.1c0.8,0.5,1.3,1.3,1.3,2.2c0,0.8-0.6,1.1-1.3,0.7l-3.6-2.1c-0.8-0.5-1.3-1.3-1.3-2.2
									C56.9-59.2,57.5-59.5,58.3-59.1z"/>
								<path class="st17" d="M58.3-59.1l3.6,2.1c0.8,0.5,1.3,1.3,1.3,2.2c0,0.8-0.6,1.1-1.3,0.7l-3.6-2.1c-0.8-0.5-1.3-1.3-1.3-2.2
									C56.9-59.2,57.5-59.5,58.3-59.1z"/>
							</g>
							<g transform="translate(10.64 23.202)">
								<path class="st4" d="M61.2-59.6l17.1,9.9c0.8,0.5,1.3,1.3,1.3,2.2c0,0.8-0.6,1.1-1.3,0.7l-17.1-9.9
									c-0.8-0.5-1.3-1.3-1.3-2.2C59.9-59.7,60.5-60,61.2-59.6z"/>
								<path class="st19" d="M61.2-59.6l17.1,9.9c0.8,0.5,1.3,1.3,1.3,2.2c0,0.8-0.6,1.1-1.3,0.7l-17.1-9.9
									c-0.8-0.5-1.3-1.3-1.3-2.2C59.9-59.7,60.5-60,61.2-59.6z"/>
							</g>
							<g transform="translate(10.64 28.476)">
								<path class="st4" d="M61.2-57.4l17.1,9.9c0.8,0.5,1.3,1.3,1.3,2.2c0,0.8-0.6,1.1-1.3,0.7l-17.1-9.9
									c-0.8-0.5-1.3-1.3-1.3-2.2C59.9-57.5,60.5-57.8,61.2-57.4z"/>
								<path class="st19" d="M61.2-57.4l17.1,9.9c0.8,0.5,1.3,1.3,1.3,2.2c0,0.8-0.6,1.1-1.3,0.7l-17.1-9.9
									c-0.8-0.5-1.3-1.3-1.3-2.2C59.9-57.5,60.5-57.8,61.2-57.4z"/>
							</g>
							<g transform="translate(0 38.195)">
								<path class="st4" d="M56.8-53.3l3.7,2.1c0.8,0.5,1.3,1.3,1.3,2.2c0,0.8-0.6,1.1-1.3,0.7l-3.6-2.1c-0.8-0.5-1.3-1.3-1.3-2.2
									C55.4-53.4,56-53.7,56.8-53.3z"/>
								<path class="st17" d="M56.8-53.3l3.7,2.1c0.8,0.5,1.3,1.3,1.3,2.2c0,0.8-0.6,1.1-1.3,0.7l-3.6-2.1c-0.8-0.5-1.3-1.3-1.3-2.2
									C55.4-53.4,56-53.7,56.8-53.3z"/>
							</g>
							<g transform="translate(7.032 42.261)">
								<path class="st4" d="M59.7-51.6L82-38.8c0.8,0.5,1.3,1.3,1.3,2.2c0,0.8-0.6,1.1-1.3,0.7L59.7-48.7c-0.8-0.5-1.3-1.3-1.3-2.2
									C58.4-51.7,59-52,59.7-51.6z"/>
								<path class="st19" d="M59.7-51.6L82-38.8c0.8,0.5,1.3,1.3,1.3,2.2c0,0.8-0.6,1.1-1.3,0.7L59.7-48.7
									c-0.8-0.5-1.3-1.3-1.3-2.2C58.4-51.7,59-52,59.7-51.6z"/>
							</g>
							<g transform="translate(3.609 45.578)">
								<path class="st4" d="M58.3-50.2l3.6,2.1c0.8,0.5,1.3,1.3,1.3,2.2c0,0.8-0.6,1.1-1.3,0.7l-3.6-2.1c-0.8-0.5-1.3-1.3-1.3-2.2
									C56.9-50.3,57.5-50.6,58.3-50.2z"/>
								<path class="st17" d="M58.3-50.2l3.6,2.1c0.8,0.5,1.3,1.3,1.3,2.2c0,0.8-0.6,1.1-1.3,0.7l-3.6-2.1c-0.8-0.5-1.3-1.3-1.3-2.2
									C56.9-50.3,57.5-50.6,58.3-50.2z"/>
							</g>
							<g transform="translate(3.609 50.839)">
								<path class="st4" d="M58.3-48l3.6,2.1c0.8,0.5,1.3,1.3,1.3,2.2c0,0.8-0.6,1.1-1.3,0.7l-3.6-2.1c-0.8-0.5-1.3-1.3-1.3-2.2
									C56.9-48.1,57.5-48.4,58.3-48z"/>
								<path class="st17" d="M58.3-48l3.6,2.1c0.8,0.5,1.3,1.3,1.3,2.2c0,0.8-0.6,1.1-1.3,0.7l-3.6-2.1c-0.8-0.5-1.3-1.3-1.3-2.2
									C56.9-48.1,57.5-48.4,58.3-48z"/>
							</g>
							<g transform="translate(10.64 49.638)">
								<path class="st4" d="M61.2-48.5l17.1,9.9c0.8,0.5,1.3,1.3,1.3,2.2c0,0.8-0.6,1.1-1.3,0.7l-17.1-9.9
									c-0.8-0.5-1.3-1.3-1.3-2.2C59.9-48.6,60.5-48.9,61.2-48.5z"/>
								<path class="st19" d="M61.2-48.5l17.1,9.9c0.8,0.5,1.3,1.3,1.3,2.2c0,0.8-0.6,1.1-1.3,0.7l-17.1-9.9
									c-0.8-0.5-1.3-1.3-1.3-2.2C59.9-48.6,60.5-48.9,61.2-48.5z"/>
							</g>
							<g transform="translate(10.64 54.912)">
								<path class="st4" d="M61.2-46.3l17.1,9.9c0.8,0.5,1.3,1.3,1.3,2.2c0,0.8-0.6,1.1-1.3,0.7l-17.1-9.9
									c-0.8-0.5-1.3-1.3-1.3-2.2C59.9-46.4,60.5-46.7,61.2-46.3z"/>
								<path class="st19" d="M61.2-46.3l17.1,9.9c0.8,0.5,1.3,1.3,1.3,2.2c0,0.8-0.6,1.1-1.3,0.7l-17.1-9.9
									c-0.8-0.5-1.3-1.3-1.3-2.2C59.9-46.4,60.5-46.7,61.2-46.3z"/>
							</g>
							<g transform="translate(3.609 29.635)">
								<path class="st4" d="M58.3-56.9l3.6,2.1c0.8,0.5,1.3,1.3,1.3,2.2c0,0.8-0.6,1.1-1.3,0.7L58.3-54c-0.8-0.5-1.3-1.3-1.3-2.2
									C56.9-57,57.5-57.3,58.3-56.9z"/>
								<path class="st17" d="M58.3-56.9l3.6,2.1c0.8,0.5,1.3,1.3,1.3,2.2c0,0.8-0.6,1.1-1.3,0.7L58.3-54c-0.8-0.5-1.3-1.3-1.3-2.2
									C56.9-57,57.5-57.3,58.3-56.9z"/>
							</g>
							<g transform="translate(0 32.848)">
								<path class="st4" d="M56.8-55.6l3.7,2.1c0.8,0.5,1.3,1.3,1.3,2.2c0,0.8-0.6,1.1-1.3,0.7l-3.6-2.1c-0.8-0.5-1.3-1.3-1.3-2.2
									C55.4-55.7,56-56,56.8-55.6z"/>
								<path class="st17" d="M56.8-55.6l3.7,2.1c0.8,0.5,1.3,1.3,1.3,2.2c0,0.8-0.6,1.1-1.3,0.7l-3.6-2.1c-0.8-0.5-1.3-1.3-1.3-2.2
									C55.4-55.7,56-56,56.8-55.6z"/>
							</g>
							<g transform="translate(10.64 33.709)">
								<path class="st4" d="M61.2-55.2l17.1,9.9c0.8,0.5,1.3,1.3,1.3,2.2c0,0.8-0.6,1.1-1.3,0.7l-17.1-9.9
									c-0.8-0.5-1.3-1.3-1.3-2.2C59.9-55.3,60.5-55.6,61.2-55.2z"/>
								<path class="st19" d="M61.2-55.2l17.1,9.9c0.8,0.5,1.3,1.3,1.3,2.2c0,0.8-0.6,1.1-1.3,0.7l-17.1-9.9
									c-0.8-0.5-1.3-1.3-1.3-2.2C59.9-55.3,60.5-55.6,61.2-55.2z"/>
							</g>
							<g transform="translate(7.032 36.913)">
								<path class="st4" d="M59.7-53.9L82-41c0.8,0.5,1.3,1.3,1.3,2.2c0,0.8-0.6,1.1-1.3,0.7L59.7-50.9c-0.8-0.5-1.3-1.3-1.3-2.2
									C58.4-54,59-54.3,59.7-53.9z"/>
								<path class="st19" d="M59.7-53.9L82-41c0.8,0.5,1.3,1.3,1.3,2.2c0,0.8-0.6,1.1-1.3,0.7L59.7-50.9c-0.8-0.5-1.3-1.3-1.3-2.2
									C58.4-54,59-54.3,59.7-53.9z"/>
							</g>
							<g transform="translate(0 54.124)">
								<path class="st4" d="M56.8-46.6l3.7,2.1c0.8,0.5,1.3,1.3,1.3,2.2c0,0.8-0.6,1.1-1.3,0.7l-3.6-2.1c-0.8-0.5-1.3-1.3-1.4-2.2
									C55.4-46.8,56-47.1,56.8-46.6z"/>
								<path class="st17" d="M56.8-46.6l3.7,2.1c0.8,0.5,1.3,1.3,1.3,2.2c0,0.8-0.6,1.1-1.3,0.7l-3.6-2.1c-0.8-0.5-1.3-1.3-1.4-2.2
									C55.4-46.8,56-47.1,56.8-46.6z"/>
							</g>
							<g transform="translate(7.032 58.189)">
								<path class="st4" d="M59.7-44.9L82-32.1c0.8,0.5,1.3,1.3,1.3,2.2c0,0.8-0.6,1.1-1.3,0.7L59.7-42c-0.8-0.5-1.3-1.3-1.3-2.2
									C58.4-45.1,59-45.4,59.7-44.9z"/>
								<path class="st19" d="M59.7-44.9L82-32.1c0.8,0.5,1.3,1.3,1.3,2.2c0,0.8-0.6,1.1-1.3,0.7L59.7-42c-0.8-0.5-1.3-1.3-1.3-2.2
									C58.4-45.1,59-45.4,59.7-44.9z"/>
							</g>
						</g>
					</g>
				</g>
			</g>
			<g transform="translate(348.719 151.445)">
				<path class="st20" d="M119.9-32.5v148.3c0.1,2.2,1.3,4.2,3.1,5.3l85.2,49.1c0.3,0.2,0.7,0.3,1,0.3c0.1,0,0.3,0,0.4-0.1
					c0.1,0,0.2,0,0.3-0.1c0.1,0,0.1-0.1,0.2-0.1l0.2-0.1c0.1,0,0.1-0.1,0.2-0.2c0.2-0.2,0.4-0.5,0.6-0.8c0.2-0.5,0.3-1,0.3-1.6V20.2
					c-0.1-2.2-1.3-4.1-3.1-5.3l-85.2-49.1c-0.6-0.4-1.4-0.5-2.1-0.3c-0.1,0-0.2,0.1-0.3,0.2l0,0c-0.1,0.1-0.1,0.1-0.2,0.2
					c0,0-0.1,0.1-0.1,0.1c0,0-0.1,0.1-0.1,0.2c-0.1,0.1-0.1,0.3-0.2,0.4c0,0.1-0.1,0.2-0.1,0.3c0,0,0,0,0,0.1c0,0.1,0,0.2-0.1,0.3
					C119.9-32.7,119.9-32.6,119.9-32.5z"/>
				<g transform="translate(0.005)">
					<path class="st4" d="M120.9-34.5c0.7-0.3,1.5-0.2,2.1,0.3l85.2,49.1c1.8,1.2,3,3.2,3.1,5.3v10.1l4.9-2.8v-10
						c-0.1-2.2-1.3-4.1-3.1-5.3L127.8-37c-0.7-0.5-1.5-0.5-2.2-0.2C125.1-36.9,121.5-34.9,120.9-34.5z"/>
					<path class="st4" d="M119.9-32.5c0-1.9,1.4-2.7,3.1-1.8l85.2,49.1c1.8,1.2,3,3.2,3.1,5.3v10.1l-91.3-52.6L119.9-32.5z"/>
					<path class="st15" d="M122.9-34.3l85.2,49.1c0.9,0.6,1.6,1.4,2.2,2.3l4.9-2.8c-0.5-0.9-1.2-1.7-2.1-2.2L127.8-37
						c-0.7-0.5-1.5-0.5-2.2-0.2c-0.6,0.3-4.1,2.3-4.7,2.7C121.6-34.8,122.3-34.7,122.9-34.3z"/>
					<path class="st8" d="M216.1,27.4v-10c0-1.1-0.4-2.1-0.9-3.1l-4.9,2.8c0.6,0.9,0.9,2,0.9,3.1v10.1L216.1,27.4z"/>
				</g>
				<g transform="translate(51.131 34.5)">
					<path class="st3" d="M155.6-15.5c1.1,0.9,1.8,2.3,1.7,3.7c0,1.5-0.8,2.2-1.7,1.7c-1.1-0.9-1.8-2.3-1.7-3.7
						C153.8-15.3,154.6-16.1,155.6-15.5z"/>
					<path class="st3" d="M149.3-19.2c1.1,0.9,1.8,2.3,1.7,3.7c0,1.5-0.8,2.2-1.7,1.7c-1.1-0.9-1.8-2.3-1.7-3.7
						C147.6-19,148.4-19.7,149.3-19.2z"/>
					<path class="st3" d="M143.1-22.8c1.1,0.9,1.8,2.3,1.7,3.7c0,1.5-0.8,2.2-1.7,1.7c-1.1-0.9-1.8-2.3-1.7-3.7
						C141.3-22.6,142.1-23.3,143.1-22.8z"/>
				</g>
				<path class="st21" d="M210.1,170.3c0.1-0.1,0.2-0.1,0.4-0.2c0.3-0.2,0.6-0.4,1-0.5l0,0c0.2-0.1,0.3-0.2,0.5-0.3c0,0,0,0,0,0
					c0.3-0.2,0.6-0.3,0.8-0.5c0.3-0.1,1.5-0.8,1.7-0.9c0.2-0.1,0.3-0.2,0.4-0.2c0.2-0.1,0.4-0.3,0.5-0.4c0.2-0.2,0.3-0.4,0.4-0.6
					c0.2-0.5,0.4-1.1,0.4-1.6V27.4l-4.9,2.8v137.4c0,0.5-0.1,1.1-0.3,1.6c-0.1,0.3-0.3,0.6-0.6,0.8
					C210.3,170.1,210.2,170.2,210.1,170.3C210.1,170.2,210.1,170.2,210.1,170.3z"/>
				<g transform="translate(4.871 20.85)">
					<g transform="translate(0.115)">
						<path class="st4" d="M122-26.2c0-0.1,0-0.3,0.2-0.4l2.2-2c0,0,0.1,0,0.1,0c0,0,0,0,0.1,0c0.1,0.1,0.1,0.1,0.2,0.2
							c0,0.1,0.1,0.2,0.1,0.3v1.5c0,0.1,0,0.3,0,0.4c0,0.1-0.1,0.2-0.2,0.2l-1.2,1.1l1.2,2.4c0.1,0.1,0.1,0.3,0.2,0.4
							c0,0.2,0.1,0.3,0,0.5v1.5c0,0.1,0,0.2-0.1,0.2c0,0-0.1,0.1-0.2,0l-0.1,0c0,0-0.1-0.1-0.1-0.1l-2.2-4.6
							c-0.1-0.2-0.2-0.4-0.2-0.6V-26.2z"/>
						<path class="st4" d="M130-28.4c0-0.1,0.1-0.2,0.2-0.3c0.1-0.1,0.2-0.1,0.3,0l0.8,0.5c0.1,0.1,0.1,0.1,0.2,0.2
							c0,0.1,0.1,0.2,0.1,0.3c0,0,0,0.1,0,0.1l-3.8,11.8c0,0.1-0.1,0.2-0.2,0.3c-0.1,0.1-0.2,0.1-0.3,0l-0.8-0.5
							c-0.1-0.1-0.1-0.1-0.2-0.2c0-0.1-0.1-0.2-0.1-0.3c0,0,0-0.1,0-0.1L130-28.4z"/>
						<path class="st4" d="M135.9-17c0,0.1,0,0.3-0.2,0.4l-2.2,2c0,0-0.1,0-0.1,0l-0.1,0c-0.1-0.1-0.1-0.1-0.2-0.2
							c0-0.1-0.1-0.2-0.1-0.3v-1.5c0-0.1,0-0.3,0-0.4c0-0.1,0.1-0.2,0.2-0.2l1.2-1.1l-1.2-2.4c-0.1-0.1-0.1-0.3-0.2-0.4
							c0-0.2,0-0.3,0-0.5v-1.5c0-0.1,0-0.2,0.1-0.2c0,0,0.1,0,0.2,0l0.1,0c0,0,0.1,0.1,0.1,0.1l2.2,4.6c0.1,0.2,0.2,0.4,0.2,0.6V-17
							z"/>
						<path class="st4" d="M142.1-11c0.1,0.1,0.2,0.2,0.2,0.3c0.1,0.1,0.1,0.2,0.1,0.4v1.7c0,0.1,0,0.2-0.1,0.3
							c-0.1,0.1-0.1,0.1-0.2,0L141-9c-0.1-0.1-0.2-0.2-0.2-0.3c-0.1-0.1-0.1-0.2-0.1-0.4v-1.7c0-0.1,0-0.2,0.1-0.3
							c0.1-0.1,0.1-0.1,0.2,0L142.1-11z"/>
						<path class="st4" d="M145.6-9c0.1,0.1,0.2,0.2,0.2,0.3c0.1,0.1,0.1,0.2,0.1,0.4v1.7c0,0.1,0,0.2-0.1,0.3
							c-0.1,0.1-0.1,0.1-0.2,0l-1-0.6c-0.1-0.1-0.2-0.2-0.2-0.3c-0.1-0.1-0.1-0.2-0.1-0.4v-1.7c0-0.1,0-0.2,0.1-0.3
							c0.1-0.1,0.1-0.1,0.2,0L145.6-9z"/>
						<path class="st4" d="M149.1-7c0.1,0.1,0.2,0.2,0.2,0.3c0.1,0.1,0.1,0.2,0.1,0.4v1.7c0,0.1,0,0.2-0.1,0.3
							c-0.1,0.1-0.1,0.1-0.2,0l-1-0.6c-0.1-0.1-0.2-0.2-0.2-0.3c-0.1-0.1-0.1-0.2-0.1-0.4v-1.7c0-0.1,0-0.2,0.1-0.3
							c0.1-0.1,0.1-0.1,0.2,0L149.1-7z"/>
					</g>
					<path class="st4" d="M123-12.8l51.2,29.5c0.6,0.4,1,1.1,1.1,1.8c0,0.7-0.5,0.9-1.1,0.6L123-10.4c-0.6-0.4-1-1.1-1.1-1.8
						C121.9-12.9,122.4-13.2,123-12.8z"/>
					<path class="st10" d="M139.4,25.1l51.2,29.5c0.6,0.4,1,1.1,1.1,1.8c0,0.7-0.5,0.9-1.1,0.6l-51.2-29.6c-0.6-0.4-1-1.1-1.1-1.8
						C138.3,25,138.8,24.8,139.4,25.1z"/>
					<path class="st10" d="M139.4,44.1l24.5,14.2c0.6,0.4,1,1.1,1.1,1.8c0,0.7-0.5,0.9-1.1,0.6l-24.5-14.2c-0.6-0.4-1-1.1-1.1-1.8
						C138.3,44,138.8,43.7,139.4,44.1z"/>
					<path class="st4" d="M178.4,19.2l20.4,11.7c0.6,0.4,1,1.1,1.1,1.8c0,0.7-0.5,0.9-1.1,0.6l-20.4-11.7c-0.6-0.4-1-1.1-1.1-1.8
						C177.3,19.1,177.8,18.8,178.4,19.2z"/>
					<path class="st4" d="M123,91.5l51.2,29.5c0.6,0.4,1,1.1,1.1,1.8c0,0.7-0.5,0.9-1.1,0.6L123,93.8c-0.6-0.4-1-1.1-1.1-1.8
						C121.9,91.4,122.4,91.1,123,91.5z"/>
					<path class="st4" d="M178.4,123.4l20.4,11.7c0.6,0.4,1,1.1,1.1,1.8c0,0.7-0.5,0.9-1.1,0.6l-20.4-11.7c-0.6-0.4-1-1.1-1.1-1.8
						C177.3,123.3,177.8,123.1,178.4,123.4z"/>
					<path class="st4" d="M178.4,95.1l20.4,11.7c0.6,0.4,1,1.1,1.1,1.8c0,0.7-0.5,0.9-1.1,0.6l-20.4-11.7c-0.6-0.4-1-1.1-1.1-1.8
						C177.3,95,177.8,94.7,178.4,95.1z"/>
					<path class="st4" d="M178.4,104.5l20.4,11.7c0.6,0.4,1,1.1,1.1,1.8c0,0.7-0.5,0.9-1.1,0.6l-20.4-11.7c-0.6-0.4-1-1.1-1.1-1.8
						C177.3,104.4,177.8,104.2,178.4,104.5z"/>
					<path class="st4" d="M161,85l11.5,6.6c0.6,0.4,1,1.1,1.1,1.8c0,0.7-0.5,0.9-1.1,0.6L161,87.4c-0.6-0.4-1-1.1-1.1-1.8
						C159.9,84.9,160.4,84.6,161,85z"/>
					<g transform="translate(0 17.763)">
						<path class="st4" d="M123-21.1l29.8,17.2c0.6,0.4,1,1.1,1.1,1.8c0,0.7-0.5,0.9-1.1,0.6L123-18.7c-0.6-0.4-1-1.1-1.1-1.8
							C121.9-21.2,122.4-21.4,123-21.1z"/>
						<path class="st17" d="M123-21.1l29.8,17.2c0.6,0.4,1,1.1,1.1,1.8c0,0.7-0.5,0.9-1.1,0.6L123-18.7c-0.6-0.4-1-1.1-1.1-1.8
							C121.9-21.2,122.4-21.4,123-21.1z"/>
					</g>
					<g transform="translate(0 24.427)">
						<path class="st4" d="M123-18.3l10.1,5.8c0.6,0.4,1,1.1,1.1,1.8c0,0.7-0.5,0.9-1.1,0.6L123-15.9c-0.6-0.4-1-1.1-1.1-1.8
							C121.9-18.4,122.4-18.6,123-18.3z"/>
						<path class="st17" d="M123-18.3l10.1,5.8c0.6,0.4,1,1.1,1.1,1.8c0,0.7-0.5,0.9-1.1,0.6L123-15.9c-0.6-0.4-1-1.1-1.1-1.8
							C121.9-18.4,122.4-18.6,123-18.3z"/>
					</g>
					<g transform="translate(0 31.104)">
						<path class="st4" d="M123-15.5l10.1,5.8c0.6,0.4,1,1.1,1.1,1.8c0,0.7-0.5,0.9-1.1,0.6L123-13.1c-0.6-0.4-1-1.1-1.1-1.8
							C121.9-15.6,122.4-15.8,123-15.5z"/>
						<path class="st17" d="M123-15.5l10.1,5.8c0.6,0.4,1,1.1,1.1,1.8c0,0.7-0.5,0.9-1.1,0.6L123-13.1c-0.6-0.4-1-1.1-1.1-1.8
							C121.9-15.6,122.4-15.8,123-15.5z"/>
					</g>
					<g transform="translate(0 37.78)">
						<path class="st4" d="M123-12.7l10.1,5.8c0.6,0.4,1,1.1,1.1,1.8c0,0.7-0.5,0.9-1.1,0.6L123-10.3c-0.6-0.4-1-1.1-1.1-1.8
							C121.9-12.8,122.4-13,123-12.7z"/>
					</g>
					<path class="st17" d="M123,25.1l10.1,5.8c0.6,0.4,1,1.1,1.1,1.8c0,0.7-0.5,0.9-1.1,0.6L123,27.5c-0.6-0.4-1-1.1-1.1-1.8
						C121.9,25,122.4,24.8,123,25.1z"/>
					<path class="st22" d="M139.4,34.6l29.8,17.2c0.6,0.4,1,1.1,1.1,1.8c0,0.7-0.5,0.9-1.1,0.6L139.4,37c-0.6-0.4-1-1.1-1.1-1.8
						C138.3,34.5,138.8,34.2,139.4,34.6z"/>
					<path class="st22" d="M173.5,54.3l13,7.5c0.6,0.4,1,1.1,1.1,1.8c0,0.7-0.5,0.9-1.1,0.6l-13-7.5c-0.6-0.4-1-1.1-1.1-1.8
						C172.4,54.2,172.9,53.9,173.5,54.3z"/>
					<path class="st17" d="M139.4,34.6l29.8,17.2c0.6,0.4,1,1.1,1.1,1.8c0,0.7-0.5,0.9-1.1,0.6L139.4,37c-0.6-0.4-1-1.1-1.1-1.8
						C138.3,34.5,138.8,34.2,139.4,34.6z"/>
					<path class="st17" d="M173.5,54.3l13,7.5c0.6,0.4,1,1.1,1.1,1.8c0,0.7-0.5,0.9-1.1,0.6l-13-7.5c-0.6-0.4-1-1.1-1.1-1.8
						C172.4,54.2,172.9,53.9,173.5,54.3z"/>
					<g transform="translate(0 44.458)">
						<path class="st4" d="M123-9.9L133.1-4c0.6,0.4,1,1.1,1.1,1.8c0,0.7-0.5,0.9-1.1,0.6L123-7.5c-0.6-0.4-1-1.1-1.1-1.8
							C121.9-10,122.4-10.2,123-9.9z"/>
						<path class="st17" d="M123-9.9L133.1-4c0.6,0.4,1,1.1,1.1,1.8c0,0.7-0.5,0.9-1.1,0.6L123-7.5c-0.6-0.4-1-1.1-1.1-1.8
							C121.9-10,122.4-10.2,123-9.9z"/>
					</g>
					<g transform="translate(24.011 31.616)">
						<path class="st4" d="M133.1-15.3l13,7.5c0.6,0.4,1,1.1,1.1,1.8c0,0.7-0.5,0.9-1.1,0.6l-13-7.5c-0.6-0.4-1-1.1-1.1-1.8
							C132-15.4,132.5-15.6,133.1-15.3z"/>
						<path class="st17" d="M133.1-15.3l13,7.5c0.6,0.4,1,1.1,1.1,1.8c0,0.7-0.5,0.9-1.1,0.6l-13-7.5c-0.6-0.4-1-1.1-1.1-1.8
							C132-15.4,132.5-15.6,133.1-15.3z"/>
					</g>
					<g transform="translate(20.239 62.808)">
						<path class="st14" d="M131.5-2.2l29.8,17.2c0.6,0.4,1,1.1,1.1,1.8c0,0.7-0.5,0.9-1.1,0.6L131.5,0.2c-0.6-0.4-1-1.1-1.1-1.8
							C130.4-2.3,130.9-2.5,131.5-2.2z"/>
					</g>
					<g transform="translate(32.369 76.515)">
						<path class="st14" d="M136.6,3.6l29.8,17.2c0.6,0.4,1,1.1,1.1,1.8c0,0.7-0.5,0.9-1.1,0.6L136.6,6c-0.6-0.4-1-1.1-1.1-1.8
							C135.5,3.5,136,3.2,136.6,3.6z"/>
					</g>
					<g transform="translate(44.25 76.661)">
						<path class="st14" d="M141.6,3.6l13,7.5c0.6,0.4,1,1.1,1.1,1.8c0,0.7-0.5,0.9-1.1,0.6l-13-7.5c-0.6-0.4-1-1.1-1.1-1.8
							C140.5,3.5,141,3.3,141.6,3.6z"/>
					</g>
					<g transform="translate(44.25 103.107)">
						<path class="st10" d="M141.6,14.7l13,7.5c0.6,0.4,1,1.1,1.1,1.8c0,0.7-0.5,0.9-1.1,0.6l-13-7.5c-0.6-0.4-1-1.1-1.1-1.8
							C140.5,14.6,141,14.4,141.6,14.7z"/>
					</g>
					<g transform="translate(11.565 31.104)">
						<path class="st4" d="M127.9-15.5l29.8,17.2c0.6,0.4,1,1.1,1.1,1.8c0,0.7-0.5,0.9-1.1,0.6l-29.8-17.2c-0.6-0.4-1-1.1-1.1-1.8
							C126.8-15.6,127.2-15.8,127.9-15.5z"/>
						<path class="st17" d="M127.9-15.5l29.8,17.2c0.6,0.4,1,1.1,1.1,1.8c0,0.7-0.5,0.9-1.1,0.6l-29.8-17.2c-0.6-0.4-1-1.1-1.1-1.8
							C126.8-15.6,127.2-15.8,127.9-15.5z"/>
					</g>
					<g transform="translate(35.577 44.958)">
						<path class="st4" d="M137.9-9.7l13,7.5c0.6,0.4,1,1.1,1.1,1.8c0,0.7-0.5,0.9-1.1,0.6l-13-7.5c-0.6-0.4-1-1.1-1.1-1.8
							C136.8-9.8,137.3-10,137.9-9.7z"/>
						<path class="st17" d="M137.9-9.7l13,7.5c0.6,0.4,1,1.1,1.1,1.8c0,0.7-0.5,0.9-1.1,0.6l-13-7.5c-0.6-0.4-1-1.1-1.1-1.8
							C136.8-9.8,137.3-10,137.9-9.7z"/>
					</g>
				</g>
			</g>
			<g transform="translate(243.652 269.692)">
				<path class="st8" d="M80,46.5l18.3,10.6c6.4,3.3,14.1,2.9,20.2-1.1l30.2-22c5.4-3.9,5.1-9.8-0.7-13.1l-9.2-5.3
					c-6.6-3.4-14.4-3.6-21.2-0.6L80.3,35.1C74.4,38.1,74.2,43.2,80,46.5z"/>
				<path class="st2" d="M149.1,24.4l-20.9,16.3l-15.4,12.1c-3.9,1.7-8.4,1.6-12.2-0.4L84.3,43c0,0,0,0,0,0c0,0,0,0,0,0l-0.1-0.1
					c-5.4-3.4-7.1-10.5-3.7-15.9c0.1-0.2,0.3-0.4,0.4-0.6c0.2-0.2,0.3-0.4,0.5-0.7c3.2-4.3,7.9-7.3,13.2-8.3l8.3-1.7
					c13.4-2.7,24.4-4.1,25.7-3.2L149,24.3C149.1,24.3,149.1,24.4,149.1,24.4z"/>
				<path class="st4" d="M137.5,33.5l1.2-0.9L120.2,22l16.1-5l-1.6-0.9l-16.1,5l-11-6.3c-0.7,0.1-1.4,0.3-2.1,0.4L137.5,33.5z"/>
				<path class="st9" d="M114.7,51.8C114.7,51.8,114.7,51.7,114.7,51.8c0.1-0.1,0.1-0.1,0.1-0.1c0,0,0,0,0,0l14.7-10.6l19.8-14.3
					v-2.2c0-0.1,0-0.1-0.1-0.2c0,0-0.1,0-0.1,0c-1.5-0.5-10.1,2.1-20.4,6.2l-6.9,2.7c-2.1,0.8-4.1,2-5.9,3.5
					c-5,4.2-7.9,10.3-7.9,16.9V54c1.7-0.1,3.4-0.5,4.9-1.2L114.7,51.8z"/>
			</g>
		</g>
		<g transform="translate(475.996 375.356)">
			<g transform="translate(0 0)">
				<g transform="translate(8.383 67.944)">
					<g transform="translate(0 11.711)">
						<path class="st4" d="M113.8,196.3c-20.1-20.8-32-105.4-12.3-121.9h100c19.6,16.5,7.8,101-12.3,121.8c-0.2,0.2-0.4,0.4-0.6,0.6
							c-0.2,0.2-0.5,0.5-0.7,0.7c-0.6,0.6-1.2,1.1-1.8,1.6c-0.2,0.1-0.3,0.3-0.5,0.4c-0.5,0.4-1,0.8-1.5,1.2
							c-0.8,0.6-1.7,1.2-2.6,1.7c-16.6,9.7-43.4,9.7-60,0l0,0c-0.9-0.5-1.8-1.1-2.6-1.7c-0.5-0.4-1-0.7-1.4-1.1
							c-0.2-0.2-0.4-0.3-0.6-0.5c-0.6-0.5-1.2-1-1.8-1.6c-0.3-0.3-0.5-0.5-0.8-0.8C114.1,196.6,113.9,196.5,113.8,196.3z"/>
					</g>
					<g transform="translate(0 11.711)" class="st23">
						<path class="st14" d="M113.8,196.3c-20.1-20.8-32-105.4-12.3-121.9h100c19.6,16.5,7.8,101-12.3,121.8
							c-0.2,0.2-0.4,0.4-0.6,0.6c-0.2,0.2-0.5,0.5-0.7,0.7c-0.6,0.6-1.2,1.1-1.8,1.6c-0.2,0.1-0.3,0.3-0.5,0.4
							c-0.5,0.4-1,0.8-1.5,1.2c-0.8,0.6-1.7,1.2-2.6,1.7c-16.6,9.7-43.4,9.7-60,0l0,0c-0.9-0.5-1.8-1.1-2.6-1.7
							c-0.5-0.4-1-0.7-1.4-1.1c-0.2-0.2-0.4-0.3-0.6-0.5c-0.6-0.5-1.2-1-1.8-1.6c-0.3-0.3-0.5-0.5-0.8-0.8
							C114.1,196.6,113.9,196.5,113.8,196.3z"/>
					</g>
					<g transform="translate(1.155)">
						<path class="st4" d="M191.6,79.5c22.8,13.3,22.8,34.9,0,48.2s-59.8,13.3-82.6,0s-22.8-34.9,0-48.2S168.8,66.2,191.6,79.5z"/>
					</g>
					<g transform="translate(1.155)" class="st24">
						<path class="st14" d="M191.6,79.5c22.8,13.3,22.8,34.9,0,48.2s-59.8,13.3-82.6,0s-22.8-34.9,0-48.2S168.8,66.2,191.6,79.5z"/>
					</g>
					<g transform="translate(12.083 6.38)">
						<path class="st4" d="M169.7,79.6c16.8,9.8,16.8,25.6,0,35.4s-43.9,9.8-60.7,0s-16.8-25.6,0-35.4S152.9,69.8,169.7,79.6z"/>
					</g>
					<g transform="translate(12.083 6.38)" class="st25">
						<path d="M169.7,79.6c16.8,9.8,16.8,25.6,0,35.4s-43.9,9.8-60.7,0s-16.8-25.6,0-35.4S152.9,69.8,169.7,79.6z"/>
					</g>
					<g transform="translate(13.865 18.219)">
						<path class="st12" d="M107.2,84.5c16.8-9.8,43.9-9.8,60.7,0c4.1,2.2,7.5,5.4,10,9.3c-2.5,3.9-6,7.1-10,9.3
							c-16.8,9.8-43.9,9.8-60.7,0c-4.1-2.2-7.5-5.4-10-9.3C99.7,89.9,103.2,86.7,107.2,84.5z"/>
					</g>
				</g>
				<g transform="translate(42.868)">
					<path class="st4" d="M108.8,128c-1.2-2.3-2-4.8-2.6-7.3c-1.1-6.1,0.4-13.1,5.3-16.8c2-1.5,4.5-2.6,5.3-4.9
						c0.4-1.3,0.4-2.7,0.1-4c-0.9-5.2-2.7-10.6-1.2-15.6c1.3-4.7,5.3-8.3,9.7-10.4c4.5-1.9,9.3-3.1,14.1-3.7c2.6-0.3,5.1-1,7.5-2.1
						c2.8-1.6,3.7-4.3,5.4-6.7c2-2.7,4.3-5.1,6.9-7.3c5.1-4.5,11.5-8.3,18.5-8c14.7,0.7,14.3,13.3,10,22.9s-5.4,12.7,3.8,22.7
						c9.2,10,9.2,22.3-1.8,29.2c-11,6.9-18.1,7.8-13.8,21.1c3.9,11.9,6.3,22-4.7,34.6c-7.1,8.2-16.8,14-28.9,13.5
						c-4.9-0.4-9.6-1.5-14.2-3.3c-3.3-1.7-1.1-4.2-2.2-7.5c-2.4-7.1-4.8-14.1-7.3-21.2c-1.9-5.5-3.3-11.5-5.8-16.7
						C111.8,133.4,110.1,130.8,108.8,128z"/>
					<g class="st26">
						<path d="M108.8,128c-1.2-2.3-2-4.8-2.6-7.3c-1.1-6.1,0.4-13.1,5.3-16.8c2-1.5,4.5-2.6,5.3-4.9c0.4-1.3,0.4-2.7,0.1-4
							c-0.9-5.2-2.7-10.6-1.2-15.6c1.3-4.7,5.3-8.3,9.7-10.4c4.5-1.9,9.3-3.1,14.1-3.7c2.6-0.3,5.1-1,7.5-2.1
							c2.8-1.6,3.7-4.3,5.4-6.7c2-2.7,4.3-5.1,6.9-7.3c5.1-4.5,11.5-8.3,18.5-8c14.7,0.7,14.3,13.3,10,22.9s-5.4,12.7,3.8,22.7
							c9.2,10,9.2,22.3-1.8,29.2c-11,6.9-18.1,7.8-13.8,21.1c3.9,11.9,6.3,22-4.7,34.6c-7.1,8.2-16.8,14-28.9,13.5
							c-4.9-0.4-9.6-1.5-14.2-3.3c-3.3-1.7-1.1-4.2-2.2-7.5c-2.4-7.1-4.8-14.1-7.3-21.2c-1.9-5.5-3.3-11.5-5.8-16.7
							C111.8,133.4,110.1,130.8,108.8,128z"/>
					</g>
					<g transform="translate(15.107 15.088)">
						<path class="st14" d="M113.6,166.7c0.4-0.2,0.7-0.6,0.7-1c-0.6-72.6,39.4-116,39.8-116.4c0.4-0.4,0.4-1.1,0-1.5
							c-0.4-0.4-1.1-0.4-1.5,0c0,0,0,0,0,0c-0.4,0.4-41,44.4-40.4,117.9c0,0.6,0.5,1.1,1.1,1.1c0,0,0,0,0,0
							C113.4,166.7,113.5,166.7,113.6,166.7z"/>
					</g>
					<g transform="translate(23.319 39.826)">
						<path class="st14" d="M117.1,74.4c0.1,0,0.1-0.1,0.2-0.1c13-8.2,36.3-14.3,36.5-14.4c0.6-0.2,0.9-0.7,0.8-1.3
							c-0.2-0.6-0.7-0.9-1.3-0.8c-1,0.2-23.8,6.3-37.1,14.6c-0.5,0.3-0.7,1-0.3,1.5C116.1,74.3,116.6,74.5,117.1,74.4z"/>
					</g>
					<g transform="translate(17.814 29.002)">
						<path class="st14" d="M126.6,75.2C126.6,75.2,126.6,75.2,126.6,75.2c0.6-0.3,0.9-0.9,0.6-1.4c-3-7.3-7.1-14.1-12-20.2
							c-0.4-0.5-1.1-0.5-1.5-0.1c0,0,0,0,0,0c-0.5,0.4-0.5,1.1-0.1,1.5c4.8,6,8.7,12.6,11.7,19.6C125.5,75.2,126.1,75.4,126.6,75.2z
							"/>
					</g>
				</g>
				<g transform="translate(0 29.328)">
					<path class="st4" d="M161.4,160.3c0,0-13.6,5.1-31.9,1.2c-18.3-4-29.5-21-29.5-21s19.8-7.9,31.3-8.7c0,0-17.9-3.1-34.7,0.7
						c0,0-10.6-3.9-8.6-21.8c0,0,10-7.3,32.9-4.5c0,0-11.5-8.2-31.7-10.6c-1.6,0,0.6-23.3,2.5-33.7s5.7-8.8,14-7.9
						c8.2,0.9,32.6,6.4,35.7,12.4c3.1,6,0.1,21.2,0.1,21.2c4.2-5.8,6.6-12.8,6.7-20c0,0,9.2,3.4,14.1,7.7c4.9,4.3,7.4,7.8,8.8,11
						c-1.1,8.2-5,20.6-10.4,27.6c0,0,12.2-7.8,14.9-22.3c0,0,9.7,12.4,9.6,28.4C185.3,138.4,177.2,152,161.4,160.3z"/>
					<path class="st27" d="M161.4,160.3c0,0-13.6,5.1-31.9,1.2c-18.3-4-29.5-21-29.5-21s19.8-7.9,31.3-8.7c0,0-17.9-3.1-34.7,0.7
						c0,0-10.6-3.9-8.6-21.8c0,0,10-7.3,32.9-4.5c0,0-11.5-8.2-31.7-10.6c-1.6,0,0.6-23.3,2.5-33.7s5.7-8.8,14-7.9
						c8.2,0.9,32.6,6.4,35.7,12.4c3.1,6,0.1,21.2,0.1,21.2c4.2-5.8,6.6-12.8,6.7-20c0,0,9.2,3.4,14.1,7.7c4.9,4.3,7.4,7.8,8.8,11
						c-1.1,8.2-5,20.6-10.4,27.6c0,0,12.2-7.8,14.9-22.3c0,0,9.7,12.4,9.6,28.4C185.3,138.4,177.2,152,161.4,160.3z"/>
					<g transform="translate(11.36 1.994)">
						<path class="st14" d="M152.5,156.7c-0.4-0.1-0.6-0.5-0.7-0.9C149,121.1,110.3,67,93.1,56.1c-0.5-0.3-0.6-1-0.3-1.4
							c0.3-0.5,0.9-0.6,1.4-0.3c0,0,0,0,0,0c17.4,11.1,56.8,66.1,59.7,101.3c0.1,0.6-0.4,1.1-0.9,1.1c0,0,0,0,0,0
							C152.8,156.8,152.6,156.7,152.5,156.7z"/>
					</g>
				</g>
			</g>
		</g>
		<g transform="translate(103.79 146.191)">
			<g transform="translate(143.486 209.649)">
				<g transform="translate(30.812 86.511)">
					<path class="st28" d="M11,99.3C11,98.9,4.8,76.4,4.8,76.4s2,2.1,15-1.4c4.9-1.5,9.7-3.5,14.1-5.9l3.7,16.5
						c3.5,6.3,15,3.4,27.5,2c2.1-0.2,4.3-0.6,6.5-1l0.1,0c6.8-0.4,13.6,3.7,6.6,9.5s-18.7,8-29.5,9.9C36,108.4,13.3,112.2,11,99.3z"
						/>
					<g transform="translate(1.96 10.772)">
						<path class="st9" d="M99.4,86.6c0.9,2.2,1.3,4.6,0.9,6.9c-0.2,2.5-6.4,11-17.4,16.2c-11,5.2-24.5,5.6-30.8,7.4
							c-6.3,1.8-12.1,5.5-19.6,7.3c-7.7,1.9-14.9,2.8-22.3-2.1c-1.4-2.1-2.9-7-2.5-7.5C8.9,113.4,99.4,86.6,99.4,86.6z"/>
						<path class="st4" d="M37.7,77c4.8,3.3,14.8,1,25.6-0.2c10.2-1.2,21.6-4.7,28.5-2.3c6.9,2.4,12.7,10.5,3.3,20.9
							c-2.7,3-8.4,8.3-13,10c-11.6,4.2-22,4.5-29.5,6.3c-9.7,2.4-15,6.7-24,7.7c-11.6,1.3-19-1.6-21-4.7c-2-3.1-3.9-28.1,1.1-27.6
							c0,0,2.1,8.1,21.1,0.2C38.2,83.9,38,78.8,37.7,77z"/>
						<path class="st7" d="M37.7,77c4.8,3.3,14.8,1,25.6-0.2c10.2-1.2,21.6-4.7,28.5-2.3c6.9,2.4,12.7,10.5,3.3,20.9
							c-2.7,3-8.4,8.3-13,10c-11.6,4.2-22,4.5-29.5,6.3c-9.7,2.4-15,6.7-24,7.7c-11.6,1.3-19-1.6-21-4.7c-2-3.1-3.9-28.1,1.1-27.6
							c0,0,2.1,8.1,21.1,0.2C38.2,83.9,38,78.8,37.7,77z"/>
						<path class="st29" d="M69.9,90.4c0,0-1.1-10.6-8.9-13.4c-1.4-0.6-3.1-0.4-4.3,0.6c0,0,7.2,1.1,9.6,13.4c0,0,0.4,0.8,2,0.5
							C68.8,91.5,70,91.3,69.9,90.4z"/>
						<path class="st29" d="M50.1,78.5c0,0,0-0.3,1.8-0.7c0.7-0.2,1.5-0.1,2.1,0.2c0,0,5.8,2.5,6.9,13.6c0,0,0,1.3-1.8,1.7
							c-0.8,0.3-1.8-0.1-2.1-1c0,0,0-0.1,0-0.1C57.1,92.2,55.9,80.6,50.1,78.5z"/>
						<path class="st29" d="M43.8,78.7c0,0,0.3-0.7,1.7-0.7c1.7,0,2.1,0.7,2.1,0.7s4.1,4.3,4.2,13.5c0,0,0.2,1.6-2,1.7
							c-2.2,0.2-1.9-1.6-1.9-1.6S47.2,80.5,43.8,78.7z"/>
					</g>
				</g>
				<path class="st2" d="M33.8,32.8c9.5,28.6,34.7,127.1,34.7,127.1s-16.4,14.8-34.2,8L-8.1,45.3L33.8,32.8z"/>
			</g>
			<g transform="translate(185.493 231.291)">
				<g transform="translate(32.689 87.051)">
					<path class="st28" d="M32.5,108.9c-1.9-2.9-9.2-22.9-9.2-22.9s7.6,4.4,20.7,1.2c6.7-1.6,12.9-8.8,12.9-8.8l5.6,19.3
						c3.3,6.4,14,4.3,26.6,3.2c2.1-0.2,4.3-0.5,6.5-0.8l0.1,0c6.8-0.2,13.5,4,6.3,9.7c-7.2,5.6-18.9,7.5-29.7,9.2
						C59.3,120.9,39.7,119.7,32.5,108.9z"/>
					<g transform="translate(3.997 11.034)">
						<path class="st9" d="M126.3,97.3c0.9,2.4,1.2,4.9,0.8,7.4c-0.3,2.7-7.2,11.7-19.1,17s-26.4,5.3-33.3,7.1s-13.2,5.5-21.3,7.3
							c-8.3,1.8-16,2.6-23.9-2.9c-1.4-2.3-2.9-7.6-2.4-8.1C28.4,123.7,126.3,97.3,126.3,97.3z"/>
						<path class="st4" d="M60.5,85.2c0.8,0.5,1.6,1,2.4,1.5c0.8,0.3,1.7,0.5,2.6,0.5c2.1,0.2,4.2,0.3,6.4,0.2
							c5.3-0.3,10.6-1.1,15.9-1.5c10.9-1,23.3-4.5,30.7-1.8c7.4,2.8,14.1,11.6,3.8,22.5c-3,3.2-9.1,8.5-13.8,10.5
							c-12.2,5.1-24.9,4.2-32.9,5.9c-10.5,2.3-16.3,6.8-26,7.7c-12.5,1.1-20.3-2.3-22.4-5.6c-1.2-1.9,0.1-11.7-1.4-19.3
							c-1.4-6.6-1-11,1.4-10.7c0.5,0.8,1.1,1.6,1.8,2.3c0.8,0.9,1.7,1.7,2.8,2.2c1.5,0.7,3.1,1.2,4.7,1.6c2.8,0.9,5.8,1.3,8.7,1.2
							c0.8,0,1.7-0.3,2.4-0.8c0.8-0.8,1.3-1.8,1.4-3c0.2-1,0.4-1.9,0.6-2.9c0.1-0.5,0.3-1,0.5-1.5c0.4-0.5,0.9-0.9,1.5-1.2
							c1.9-0.8,3.5-2.1,4.8-3.6c0.8-1.4,1.3-2.9,1.4-4.5c0-0.3,0.1-0.5,0.3-0.7c0.4-0.3,0.9,0,1.3,0.2C59.6,84.6,60,84.9,60.5,85.2z
							"/>
						<path class="st7" d="M60.5,85.2c0.8,0.5,1.6,1,2.4,1.5c0.8,0.3,1.7,0.5,2.6,0.5c2.1,0.2,4.2,0.3,6.4,0.2
							c5.3-0.3,10.6-1.1,15.9-1.5c10.9-1,23.3-4.5,30.7-1.8c7.4,2.8,14.1,11.6,3.8,22.5c-3,3.2-9.1,8.5-13.8,10.5
							c-12.2,5.1-24.9,4.2-32.9,5.9c-10.5,2.3-16.3,6.8-26,7.7c-12.5,1.1-20.3-2.3-22.4-5.6c-1.2-1.9,0.1-11.7-1.4-19.3
							c-1.4-6.6-1-11,1.4-10.7c0.5,0.8,1.1,1.6,1.8,2.3c0.8,0.9,1.7,1.7,2.8,2.2c1.5,0.7,3.1,1.2,4.7,1.6c2.8,0.9,5.8,1.3,8.7,1.2
							c0.8,0,1.7-0.3,2.4-0.8c0.8-0.8,1.3-1.8,1.4-3c0.2-1,0.4-1.9,0.6-2.9c0.1-0.5,0.3-1,0.5-1.5c0.4-0.5,0.9-0.9,1.5-1.2
							c1.9-0.8,3.5-2.1,4.8-3.6c0.8-1.4,1.3-2.9,1.4-4.5c0-0.3,0.1-0.5,0.3-0.7c0.4-0.3,0.9,0,1.3,0.2C59.6,84.6,60,84.9,60.5,85.2z
							"/>
						<path class="st29" d="M94.6,100.7c0,0-0.9-11.4-9.2-14.6c-1.5-0.7-3.3-0.5-4.6,0.5c0,0,7.8,1.3,10,14.7c0,0,0.4,0.9,2.1,0.6
							C93.4,101.8,94.6,101.6,94.6,100.7z"/>
						<path class="st29" d="M73.6,87.3c0,0,0-0.4,2-0.7c0.8-0.2,1.6-0.1,2.3,0.3c0,0,6.2,2.9,7.1,14.8c-0.2,1-1,1.7-2,1.8
							c-0.9,0.3-1.9-0.2-2.2-1.1c0,0,0-0.1,0-0.1C80.7,102.2,79.8,89.7,73.6,87.3z"/>
						<path class="st29" d="M66.9,87.4c0,0,0.4-0.7,1.8-0.7c1.9,0.1,2.3,0.8,2.3,0.8s4.3,4.7,4.1,14.6c0,0,0.1,1.7-2.2,1.8
							c-2.3,0.1-2-1.8-2-1.8S70.5,89.5,66.9,87.4z"/>
					</g>
				</g>
				<path class="st3" d="M58.8,45c7.5,23,26.6,88.6,35.4,122.4c0,0-15.7,14.1-35.9,12.9L9.5,53.9l19.4-12L58.8,45z"/>
			</g>
			<g transform="translate(15.346 210.118)">
				<g transform="translate(89.664 97.953)">
					<path class="st3" d="M-21.1,283.5c1.7,0,3.2-1.4,3.2-3.2c0,0,0,0,0,0v-203c0-1.7-1.4-3.2-3.2-3.2c-1.7,0-3.2,1.4-3.2,3.2
						c0,0,0,0,0,0v203C-24.3,282.1-22.9,283.5-21.1,283.5C-21.1,283.5-21.1,283.5-21.1,283.5z"/>
				</g>
				<g transform="translate(1.189 77.913)">
					<path class="st3" d="M-58.3,229.6c1.3,0,2.5-0.8,2.9-2L6.9,70c0.6-1.6-0.2-3.5-1.8-4.1c-1.6-0.6-3.5,0.2-4.1,1.8l-62.3,157.6
						c-0.6,1.6,0.2,3.5,1.8,4.1C-59,229.5-58.7,229.6-58.3,229.6L-58.3,229.6z"/>
				</g>
				<g transform="translate(6.456 87.521)">
					<path class="st3" d="M-56,201.1c0.9,0,1.7-0.4,2.3-1L62.1,77.5l115.6,122.1c1.2,1.3,3.2,1.3,4.5,0.1c1.3-1.2,1.3-3.2,0.1-4.5
						L64.4,70.7c-0.6-0.6-1.4-1-2.3-1l0,0c-0.9,0-1.7,0.4-2.3,1l-118.1,125c-1.2,1.3-1.1,3.3,0.1,4.5
						C-57.6,200.8-56.9,201.1-56,201.1L-56,201.1z"/>
				</g>
				<g transform="translate(134.287 77.913)">
					<path class="st3" d="M59.9,229.6c0.4,0,0.8-0.1,1.2-0.2c1.6-0.6,2.4-2.5,1.8-4.1c0,0,0,0,0,0L0.5,67.7
						c-0.6-1.6-2.5-2.4-4.1-1.8c-1.6,0.6-2.4,2.5-1.8,4.1l62.3,157.6C57.4,228.8,58.6,229.6,59.9,229.6z"/>
				</g>
				<g transform="translate(2.125)">
					<path class="st4" d="M193.5,105.6c2.3-12.7-8.1-22.7-27.6-35.8c-18.1-11.9-37-22.5-56.6-31.8c-16.3-7.5-33-6.8-53.9,3.9
						C26.4,56.9-61,109.9-61,109.9s130.7,73.8,155.8,70.5c25.1-3.3,88-44.2,93-58.6C192.7,107.4,193.5,105.6,193.5,105.6z"/>
				</g>
				<g transform="translate(2.125)" class="st30">
					<path d="M193.5,105.6c2.3-12.7-8.1-22.7-27.6-35.8c-18.1-11.9-37-22.5-56.6-31.8c-16.3-7.5-33-6.8-53.9,3.9
						C26.4,56.9-61,109.9-61,109.9s130.7,73.8,155.8,70.5c25.1-3.3,88-44.2,93-58.6C192.7,107.4,193.5,105.6,193.5,105.6z"/>
				</g>
				<g transform="translate(102.984 51.136)">
					<path class="st4" d="M-18.7,113.7c18.8,17,38.4,2.4,69.4-17.8c35.1-22.8,42-41.4,42-41.4s0,14-2.6,20.5
						c-2.6,6.5-8.3,14-33.6,31.4s-43.7,26.2-60.7,29.4l-13.4-1.9"/>
				</g>
				<path class="st6" d="M153.7,147.1c35.1-22.8,42-41.4,42-41.4s0,14-2.6,20.5c-2.6,6.5-8.3,14-33.6,31.4s-43.7,26.2-60.7,29.4
					l-13.4-1.9l-1-20.3C103.1,181.8,122.7,167.2,153.7,147.1z"/>
				<g transform="translate(0 175.934)">
					<path class="st4" d="M-52.2,106.9l-9.6,22.2c-0.1,0.2-0.1,0.4-0.1,0.6c0,0.1,0,0.3,0,0.4c0.2,0.6,0.6,1.2,1.2,1.5
						c1.6,0.9,3.5,1,5.2,0.2c0.5-0.2,0.8-0.6,1.1-1c0,0,0,0,0,0l0.1-0.3l8.9-20.8L-52.2,106.9z"/>
				</g>
				<g transform="translate(172.672 176.591)">
					<path class="st4" d="M17.2,107.1l8.2,21.7c0,0.2,0.1,0.4,0.1,0.6c0,0.1,0,0.3,0,0.4c-0.2,0.6-0.7,1.1-1.2,1.4
						c-1.6,0.8-3.4,0.8-5,0c-0.4-0.2-0.8-0.6-1-1c0,0,0,0,0,0l-0.1-0.3l-7.6-20.4L17.2,107.1z"/>
				</g>
				<g transform="translate(89.322 231.462)">
					<path class="st4" d="M-24.4,131.1v18c0.1,0.7,0.5,1.2,1.1,1.5c1.6,0.8,3.5,0.8,5.1,0c0.6-0.3,1-0.8,1.1-1.5v-18
						C-19.4,129.9-22.1,129.9-24.4,131.1z"/>
				</g>
			</g>
			<g transform="translate(39.927)">
				<g transform="translate(0 194.749)">
					<g transform="translate(14.406)">
						<path class="st2" d="M-45.6,44.9c7.4,8.7,75.2-10.8,93.1-13.3c28.9-3.9,52.5-6.8,62.3-3.7s14,8.1,17,19.9
							c3.5,13.9,5.4,20.9,5.4,20.9s-48.1,18.5-86,22.9S-45.6,44.9-45.6,44.9z"/>
					</g>
					<g transform="translate(0 14.904)">
						<path class="st3" d="M-43.8,42.7c-7.5,28.6-14.3,61.9,3.1,80.1C-29,135,29.8,166.9,67.8,154.4
							c37.4-12.4,114.7-69.8,122.5-75.6c7.8-5.8,14.8-9.7,14.1-12.2c-10.4-34.6-25.7-37.3-53.9-31.1C115.8,43.1,39.9,74.1,39.9,74.1
							L-43.8,42.7z"/>
					</g>
				</g>
				<g transform="translate(71.044)">
					<g transform="translate(7.404 65.032)">
						<path class="st28" d="M49.5,3.4L23.5,32.9l-42.1-20l29.5-40.7L49.5,3.4z"/>
					</g>
					<g transform="translate(12.553 16.381)">
						<g transform="translate(65.688 31.201)">
							<path class="st31" d="M11.1-35.2c0,0,10.7,15.4,9.5,17c-1.1,1.6-8.7,3.1-8.7,3.1L11.1-35.2z"/>
						</g>
						<circle class="st32" cx="76.7" cy="-6.6" r="11.6"/>
						<path class="st28" d="M47.1-46.6c21,3.9,27.2,13,29.9,46.1c2.8,34.6-0.4,45.6-4.9,50.4c-3,3.2-20.1,4.2-28.7,2
							C32.6,49.1,8,41-3.8,23.8C-17.7,3.6-21.9-24.1-7.8-35.8C12.1-52.3,38.6-48.2,47.1-46.6z"/>
						<path class="st31" d="M44.4,52c9,2,22.8,0.8,26.8-1.5c-5,1.1-10.3,0.9-15.2-0.6c-4.9-1.3-9.6-3.4-13.9-6.1L44.4,52z"/>
					</g>
					<path class="st9" d="M93.5-16.7L93.5-16.7c-5.9,4.1-13.1,5.8-20.1,6.9c0.6,5.6-1.2,11.2-3,16.5c-1.2,3.7-5.6,15.4-10.3,9
						C56.7,11,53.6,6.8,47,8C36.2,9.8,35,23.7,42,32s13.4,4.9,13.4,4.9s1,14.9-6.9,25.5c0,0-11.8,7.2-28.3,1.8
						c-10.4-3.4-25.4-16.6-31-26.8C-25.9,9.1-26-17.9-7.5-26.2C-5.8-39.7,4.6-46,16.7-49c16.7-4.2,34,6.2,50.1-0.7
						c3.4-1.5,6.5-3.5,10-4.8c2-0.7,4.3-1.1,6,0c1.4,1.2,2.3,2.8,2.6,4.6c0.8,3.2,1.1,6.8-0.6,9.6c2.4-1.3,4.9-2.2,7.6-2.8
						c2.7-0.6,5.5,0.1,7.7,1.7c1.8,1.7,2.9,4.1,3.1,6.7C103.7-27.6,99.3-20.8,93.5-16.7z"/>
					<g transform="translate(0.963 15.995)">
						<path class="st9" d="M-8.7-37.7l-12.7-7.1c2-3.5,6.4-4.7,9.9-2.8C-8-45.6-6.8-41.2-8.7-37.7L-8.7-37.7z"/>
					</g>
					<line class="st33" x1="60.1" y1="15.7" x2="100.7" y2="8.1"/>
				</g>
				<path class="st28" d="M216,85.6c-1.1-1.8-3.5-2.2-5.5-2.9c-3.7-1.3-6.6-4.3-10.2-5.9c-4.1-1.7-8.6-2-12.9-0.9
					c-1.5,0.4-2.9,0.8-4.3,1.4c-2.7,1.1-5.2,2.4-7.7,3.9c-10.3,6.1-18,19.8-28.1,26.1c-3.8,2.4-7.3,4.5-10.8,6.6l24.1,21.5
					c3.8-3.2,7.8-6.3,11.9-9.1c5.9-3.5,11.9-3.6,18.6-4.6c4.6-0.8,9.2-1.9,13.6-3.4c1.6-0.5,3.3-1.1,4-2.6c0.9-1.9-0.6-4.2-2.6-5
					c-2.1-0.8-4.8-0.6-7.1-1c-1.7-0.3-6.4,0.8-7.4-1c-0.5-0.9,0.1-2.1,0.8-2.9c4.2-5.2,9.5-10.8,16.2-12.4c2.1-0.3,4.1-1.1,5.9-2.3
					C216.3,90,216.9,87.7,216,85.6z"/>
				<path class="st4" d="M71.6,61.6c-25.6-14-49-5-57.4,13C6.6,90.8-9.4,153.8-9.4,153.8C-1.7,168.3,71.6,61.6,71.6,61.6z"/>
				<g transform="translate(5.532 78.968)">
					<path class="st4" d="M62.2-12.3l3.8-5.1c-28.9-13.8-54.9,4.3-77.7,39.8c-24.6,38.3-37.5,93.2-37.6,151.2
						c0,0,4.9,26.1,37.8,39.1c34.9,13.8,83.7,8,98.9-28.2c0,0,0.3-36.2,11.3-54c7.1-11.5,23.7-37.1,36.1-55.5
						c10.8-16,19.1-52.4-3.4-65.7c-5.9-3.4-12-6.5-18.3-9.3C92.8,6.7,59.6-4.2,62.2-12.3z"/>
					<path class="st34" d="M62.3-12.2l3.8-5.2c-28.9-13.8-54.9,4.3-77.7,39.8c-24.6,38.3-37.5,93.2-37.6,151.2
						c0,0,4.9,26.1,37.8,39.1c34.9,13.8,83.7,8,98.9-28.2c0,0,0.3-36.2,11.3-54c7.1-11.5,23.7-37.1,36.1-55.5
						c10.8-16,19.1-52.4-3.4-65.7c-5.9-3.4-12-6.5-18.3-9.3C92.8,6.7,59.7-4.1,62.3-12.2z"/>
					<path class="st35" d="M144.2,51.8c1.6-6.9,1.9-14.1,0.9-21.1l0,0c-5.2,12.3-12.7,23.6-21.9,33.4
						c-11.8,12.4-26.3,22.1-37.3,35.2c-11.6,13.9-19.9,30.8-29.6,46c-3.9,6.1-9.2,17.9-16.4,18.4c-8.8,0.6-17.2-10.2-22-17.6
						c-7.7-11.8-14.2-26.6-23.8-36.9c-8.3-9.1-21.2-20.7-32.5-15.4l0,0c-0.9,3-1.7,6.1-2.4,9.1c-0.8,3.1-1.5,6.2-2.1,9.4l-0.1,0.4
						c-0.7,3.1-1.3,6.3-1.8,9.5c0,0.2-0.1,0.3-0.1,0.5c-0.5,3.1-1,6.3-1.5,9.4c-1.9,13.8-2.9,27.6-2.9,41.5c0,0,4.9,26.1,37.8,39.1
						c34.9,13.8,83.7,8,98.9-28.2c0,0,0.3-36.2,11.3-54c1.1-1.8,2.5-3.9,4-6.3l0,0c0.1-0.1,0.2-0.3,0.3-0.4c1.3-2,2.6-4.1,4.1-6.4
						c0.1-0.1,0.2-0.3,0.3-0.4l0.1-0.2c3.1-4.9,6.7-10.4,10.3-15.9c0.6-0.9,1.1-1.7,1.7-2.5c3.5-5.4,7.1-10.8,10.5-16l0-0.1
						c1.2-1.7,2.3-3.4,3.4-5.1l1.4-2.1l0,0c0.4-0.6,0.8-1.2,1.2-1.8c0.1-0.2,0.2-0.4,0.3-0.6c0.3-0.5,0.5-0.9,0.8-1.4
						c0.1-0.2,0.2-0.4,0.4-0.7c0.3-0.6,0.6-1.1,0.9-1.7c0.1-0.1,0.1-0.3,0.2-0.4c0.4-0.8,0.7-1.5,1.1-2.3l0-0.1c0,0,0-0.1,0.1-0.1
						c0.3-0.7,0.6-1.5,0.9-2.2c0.1-0.2,0.1-0.4,0.2-0.5c0.3-0.7,0.5-1.4,0.8-2.2l0.1-0.2c0-0.1,0.1-0.2,0.1-0.2
						c0.5-1.4,0.9-2.7,1.3-4.1l0,0c0.4-1.4,0.7-2.8,1.1-4.3l0,0L144.2,51.8z"/>
				</g>
				<g transform="translate(117.329 101.849)">
					<path class="st28" d="M166.7,64.2c-1.8,2.2-3.9,4.3-6,6.2c-8.9,8-19.2,11.9-31.2,19.7c-9.7,6.3-24.7,15.5-37.3,23.4
						c-12.8,7.9-26.4,14.2-40.7,18.8c-11.7,3.4-18.3,3.6-25.2-15.2c-3.4-9.2-6.1-18.7-9-28.1C12.7,75,8.4,61,4.2,47
						C-2.1,26-11.4,8.5,23.5-10.8c15.2,8.7,21,12.2,25.8,30.4C55,41.4,64.2,84.4,64.2,84.4c12.3-4.3,24.4-9.5,36.1-15.4
						c4.4-2.2,9.9-3.7,13-7.7c2.1-2.7,4-5.6,5.6-8.6c1.5-2.7,2.6-5.6,4.2-8.2c3-4.8,7.4-8.8,11.5-12.6c0.7-0.9,1.7-1.4,2.8-1.6
						c1.2,0,2.3,0.7,2.8,1.7c1.3,2.2,0.1,4.4-0.6,6.7c-0.8,2.6-1.5,5.2-2.3,7.8c8.9-5.2,16.5-12.3,22.3-20.9
						c0.5-0.8,1.1-1.6,1.8-2.2c0.7-0.7,1.6-1,2.6-0.9c2.3,0.3,4.7,4.1,4.8,6.2c0.1,2.2-0.4,4.4,0.2,6.6c0.5,2,1.9,3.7,2.5,5.7
						c0.6,2,1.1,4.2,1.3,6.3c0.3,4.7-1,9.3-3.5,13.2C168.5,61.8,167.6,63,166.7,64.2z"/>
					<path class="st4" d="M21.4-12.4C34.8-7,44.3-1,50.4,19.3c6.1,20.4,12.6,52.9,12.6,52.9s0.1,6.8-16,16.3
						c-9.4,5.7-20.7,7.2-31.3,4.2L3.6,53.6C3.6,53.6-18.1,1.1,21.4-12.4z"/>
				</g>
			</g>
			<g transform="translate(0 158.108)">
				<path class="st4" d="M100.7,237.2c-10.7-0.5-19-8.4-44.4-19C9.3,198.7-25.8,183-39.2,158.5S-62.1,63-58.8,32.3
					c0.3-3.5,1.1-6.9,2.3-10.2l-3.3-0.5l8.5-7.3v0c8.8-7.2,23-0.8,33.8,5.1C13.2,36.2,37.3,52.4,56.2,111
					c14.3,44.1,23.7,84.3,43.4,105.8"/>
				<path class="st36" d="M-56.5,22.1l-3.3-0.5l8.5-7.3v0c8.8-7.2,23-0.8,33.8,5.1C13.2,36.2,37.3,52.4,56.2,111
					c14.3,44.1,23.7,84.3,43.4,105.8l1,20.3c-10.7-0.5-19-8.4-44.4-19C9.3,198.7-25.8,183-39.2,158.5S-62.1,63-58.8,32.3
					C-58.4,28.8-57.7,25.4-56.5,22.1z"/>
				<g transform="translate(0 5.307)">
					<path class="st4" d="M-26.4,21.7c30.7,16.7,54.7,32.9,73.7,91.6s29.4,110.4,66.8,120.5c0,0-16.9,6.7-68.7-15.2
						c-16.5-7-36.5-19.7-49.6-27.1C-30,177-45.7,165.1-48.1,160.7C-61.7,136.3-71,65.2-67.7,34.5C-64.3,3.8-41.7,13.3-26.4,21.7z"/>
				</g>
			</g>
		</g>
	</g>
</g>
</svg>
