<svg xmlns="http://www.w3.org/2000/svg" width="32.206" height="32.206" viewBox="0 0 32.206 32.206"><defs><style>.a{fill:#00ff90;}</style></defs><path class="a" d="M33.11,10.465a11.82,11.82,0,0,0-.748-3.909A7.894,7.894,0,0,0,30.5,3.7a7.894,7.894,0,0,0-2.852-1.859A11.82,11.82,0,0,0,23.743,1.1C22.024,1.018,21.476,1,17.1,1s-4.92.018-6.638.1a11.82,11.82,0,0,0-3.909.748A7.894,7.894,0,0,0,3.7,3.7,7.894,7.894,0,0,0,1.843,6.556a11.82,11.82,0,0,0-.748,3.908C1.018,12.183,1,12.73,1,17.1s.018,4.92.1,6.638a11.82,11.82,0,0,0,.748,3.909A7.894,7.894,0,0,0,3.7,30.5a7.892,7.892,0,0,0,2.852,1.859,11.82,11.82,0,0,0,3.908.748c1.719.079,2.267.1,6.64.1s4.92-.018,6.638-.1a11.82,11.82,0,0,0,3.909-.748,8.234,8.234,0,0,0,4.711-4.711,11.82,11.82,0,0,0,.748-3.908c.079-1.719.1-2.267.1-6.64S33.188,12.183,33.11,10.465Zm-2.9,13.146a8.907,8.907,0,0,1-.555,2.988A5.332,5.332,0,0,1,26.6,29.656a8.909,8.909,0,0,1-2.99.555c-1.7.077-2.208.093-6.507.093s-4.809-.016-6.507-.093a8.909,8.909,0,0,1-2.988-.555,4.988,4.988,0,0,1-1.854-1.2A4.988,4.988,0,0,1,4.55,26.6,8.907,8.907,0,0,1,4,23.611C3.918,21.911,3.9,21.4,3.9,17.1S3.918,12.294,4,10.6A8.909,8.909,0,0,1,4.55,7.608a4.988,4.988,0,0,1,1.2-1.854,4.988,4.988,0,0,1,1.852-1.2A8.909,8.909,0,0,1,10.6,4C12.3,3.918,12.8,3.9,17.1,3.9s4.809.016,6.507.093A8.909,8.909,0,0,1,26.6,4.55a4.988,4.988,0,0,1,1.854,1.2,4.988,4.988,0,0,1,1.2,1.852,8.908,8.908,0,0,1,.555,2.99c.077,1.7.093,2.208.093,6.507S30.288,21.913,30.211,23.611ZM17.1,8.833a8.27,8.27,0,1,0,8.27,8.27A8.27,8.27,0,0,0,17.1,8.833Zm0,13.638A5.368,5.368,0,1,1,22.471,17.1,5.368,5.368,0,0,1,17.1,22.471ZM27.631,8.508A1.932,1.932,0,1,1,25.7,6.575,1.932,1.932,0,0,1,27.631,8.508Z" transform="translate(-1 -1)"/></svg>