<svg xmlns="http://www.w3.org/2000/svg" width="32.206" height="32.206" viewBox="0 0 32.206 32.206"><defs><style>.a,.b{fill:#00ff90;}.a{fill-rule:evenodd;}</style></defs><g transform="translate(8.464 8.464)"><path class="a" d="M131.075,142.8V132.91H127.9V142.8Zm-1.469-11.392a1.689,1.689,0,1,0-.023,0Z" transform="translate(-127.9 -128)"/><path class="a" d="M222.049,209a3.219,3.219,0,0,0-2.868,1.608v-1.376H216v9.889h3.181v-5.633a2.123,2.123,0,0,1,.11-.781,1.74,1.74,0,0,1,1.631-1.174c1.151,0,1.613.885,1.613,2.18v5.407h3.181v-5.777C225.715,210.376,224.142,209,222.049,209Z" transform="translate(-210.905 -204.316)"/></g><path class="b" d="M93.631,64H66.752A2.627,2.627,0,0,0,64,66.508V93.446a2.834,2.834,0,0,0,2.752,2.76H93.622a2.69,2.69,0,0,0,2.584-2.76V66.508A2.469,2.469,0,0,0,93.631,64Zm-.268,29.53H66.945a.256.256,0,0,1-.26-.26V66.852a.174.174,0,0,1,.168-.168h26.51a.18.18,0,0,1,.168.168v26.51A.18.18,0,0,1,93.362,93.53Z" transform="translate(-64 -64)"/></svg>