<svg xmlns="http://www.w3.org/2000/svg" width="28" height="28" viewBox="0 0 28 28"><defs><style>.a,.b{fill:#00ff90;}.a{fill-rule:evenodd;}</style></defs><g transform="translate(-32 -32)"><path class="a" d="M153.909,144.075c-.266-.708-.574-.657-.778-.665s-.384,0-.661,0a1.346,1.346,0,0,0-.952.4,3.9,3.9,0,0,0-1.338,2.858,6.741,6.741,0,0,0,1.3,3.653c.167.239,2.281,3.952,5.795,5.479s3.533,1.061,4.177,1.027a3.551,3.551,0,0,0,2.431-1.567,2.886,2.886,0,0,0,.267-1.647c-.082-.148-.312-.244-.657-.431s-2.037-1.094-2.355-1.222-.549-.194-.8.146-.949,1.1-1.162,1.323-.419.246-.764.058a9.593,9.593,0,0,1-2.756-1.832,10.518,10.518,0,0,1-1.861-2.484c-.192-.356,0-.538.181-.7.164-.15.366-.394.549-.591a2.387,2.387,0,0,0,.373-.568.637.637,0,0,0-.006-.611C154.812,146.522,154.175,144.783,153.909,144.075Z" transform="translate(-110.792 -104.443)"/><path class="b" d="M46.254,34a11.723,11.723,0,0,1,8.311,3.415,11.565,11.565,0,0,1,0,16.45,11.723,11.723,0,0,1-8.311,3.415,11.842,11.842,0,0,1-5.682-1.45l-.751-.412L39,55.676,35.164,56.9l1.211-3.572.3-.884-.486-.8a11.563,11.563,0,0,1,1.754-14.228A11.722,11.722,0,0,1,46.254,34m0-2A13.693,13.693,0,0,0,32.508,45.639a13.5,13.5,0,0,0,1.972,7.043L32,60l7.61-2.418A13.673,13.673,0,1,0,46.254,32Z"/></g></svg>